<?xml version="1.0" standalone="no"?>
<!DOCTYPE svg PUBLIC "-//W3C//DTD SVG 1.1//EN" "http://www.w3.org/Graphics/SVG/1.1/DTD/svg11.dtd" >
<!--
2018-8-13: Created with FontForge (http://fontforge.org)
-->
<svg xmlns="http://www.w3.org/2000/svg" xmlns:xlink="http://www.w3.org/1999/xlink" version="1.1">
<metadata>
Created by FontForge 20160405 at Mon Aug 13 20:21:36 2018
 By Apache
Copyright (c) 2018, Apache
</metadata>
<defs>
<font id="Flaticon" horiz-adv-x="512" >
  <font-face 
    font-family="Flaticon"
    font-weight="400"
    font-stretch="normal"
    units-per-em="512"
    panose-1="2 0 5 3 0 0 0 0 0 0"
    ascent="448"
    descent="-64"
    bbox="-0.012207 -64.0166 512.01 448.012"
    underline-thickness="25.6"
    underline-position="-51.2"
    unicode-range="U+0020-F1D1"
  />
    <missing-glyph />
    <glyph glyph-name="space" unicode=" " horiz-adv-x="200" 
 />
    <glyph glyph-name="uniF1B2" unicode="&#xf1b2;" 
d="M497.382 385.417c8.0293 0 14.6182 -6.58887 14.6182 -14.6182v-357.611c0 -8.02832 -6.58887 -14.6172 -14.6182 -14.6172h-3.50195h-475.968h-3.50195c-8.02832 0.0126953 -14.4102 6.60156 -14.4102 14.6309v357.598c0 8.0293 6.38184 14.6182 14.4102 14.6182
h3.50195h4.1123h7.61328h460.325h3.91699h3.50195zM255.896 184.075l109.523 94.6982l89.5488 77.6152h-0.415039h-7.19922h-375.926h-7.00391h-7.00391h-0.59668l89.5488 -77.6152zM384.356 256.957l-118.784 -102.935
c-5.35645 -4.73438 -13.5928 -4.94238 -19.1445 -0.208008l-118.992 103.143l-98.4072 85.2295v-300.373l98.4072 85.4375l55.1768 47.5635c5.9668 5.35645 15.2402 4.7334 20.377 -1.44043c5.35645 -5.96582 4.52637 -15.2402 -1.43945 -20.377l-55.1768 -47.7568
l-89.5488 -77.4082h398.157l-89.5488 77.4082l-55.1768 47.7568c-5.9668 5.14941 -6.58887 14.4111 -1.43945 20.377c5.35645 6.17383 14.4102 6.79688 20.377 1.44043l55.1768 -47.5635l98.6143 -85.4375v300.373z" />
    <glyph glyph-name="uniF17E" unicode="&#xf17e;" 
d="M456.354 213.888c0 0 12.9785 -9.12988 12.9785 -21.8965c0 -12.7656 -12.9785 -21.8965 -12.9785 -21.8965l-365.287 -226.304c-26.6152 -17.4512 -48.4004 -4.59961 -48.4004 28.5527v439.296c0 33.1689 21.7852 46.0205 48.4004 28.5527z" />
    <glyph glyph-name="uniF182" unicode="&#xf182;" 
d="M256 447.982c141.388 0 256 -114.577 256 -255.965c0 -141.389 -114.646 -256 -256 -256s-256 114.543 -256 255.965c0 141.423 114.612 256 256 256zM256 -29.6982c122.291 0 221.715 99.5273 221.715 221.75s-99.457 221.715 -221.715 221.715
s-221.715 -99.3887 -221.715 -221.715s99.458 -221.75 221.715 -221.75zM267.039 273.751l111.184 -111.184c6.68555 -6.68457 6.68555 -17.5527 0 -24.2383c-6.68457 -6.68652 -17.5527 -6.68652 -24.2393 0l-99.1152 99.1152l-99.1152 -99.1152
c-6.68457 -6.68652 -17.5527 -6.68652 -24.2383 0c-6.68652 6.68457 -6.68652 17.5527 0 24.2383l111.183 111.184c3.36035 3.35938 7.74805 4.9707 12.1709 4.9707s8.81152 -1.61035 12.1709 -4.9707z" />
    <glyph glyph-name="uniF103" unicode="&#xf103;" 
d="M177.233 408.613c16.4082 0 30.3594 -5.74316 41.8447 -17.2285c11.4844 -11.4854 17.2285 -25.4316 17.2285 -41.8457v-216.611c0 -21.332 -4.1543 -41.6904 -12.46 -61.0752c-8.30664 -19.3857 -19.5391 -36.1504 -33.6904 -50.3066
c-14.1543 -14.1543 -30.9229 -25.3887 -50.3076 -33.6943c-19.3857 -8.30469 -39.7441 -12.4648 -61.0801 -12.4648h-19.6904c-5.33789 0 -9.94727 1.95508 -13.8496 5.84863c-3.89648 3.89648 -5.8457 8.52148 -5.8457 13.8467v39.3896
c0 5.33301 1.94922 9.9502 5.8457 13.8447c3.89844 3.89551 8.5127 5.84863 13.8496 5.84863h19.6895c21.7471 0 40.3096 7.69336 55.6934 23.0732c15.3838 15.3877 23.0771 33.9453 23.0771 55.6904v9.84082c0 8.20898 -2.87109 15.1865 -8.61523 20.9258
c-5.74414 5.74219 -12.7197 8.61523 -20.9219 8.61523h-68.9229c-16.4092 0 -30.3613 5.74609 -41.8496 17.2305c-11.4873 11.4844 -17.2285 25.4307 -17.2285 41.8428v118.151c0 16.4131 5.74414 30.3613 17.2285 41.8486c11.4893 11.4854 25.4365 17.2295 41.8496 17.2295
h118.155zM494.765 391.384c11.4922 -11.4844 17.2314 -25.4307 17.2344 -41.8447v-216.611c0 -21.332 -4.15723 -41.6943 -12.4619 -61.0752c-8.30176 -19.3809 -19.54 -36.1504 -33.6943 -50.3066c-14.1553 -14.1543 -30.9219 -25.3887 -50.3027 -33.6943
c-19.3887 -8.30469 -39.7461 -12.4648 -61.0781 -12.4648h-19.6943c-5.33398 0 -9.95117 1.95508 -13.8457 5.84863c-3.89746 3.89648 -5.84961 8.52148 -5.84961 13.8467v39.3896c0 5.33301 1.95215 9.9502 5.84961 13.8447
c3.89551 3.89551 8.51367 5.84863 13.8457 5.84863h19.6943c21.749 0 40.3066 7.69336 55.6904 23.0732c15.3867 15.3877 23.0801 33.9453 23.0801 55.6904v9.84082c0 8.20898 -2.87793 15.1836 -8.61523 20.9258c-5.74316 5.74219 -12.7246 8.61523 -20.9268 8.61523
h-68.9229c-16.4111 0 -30.3604 5.74609 -41.8457 17.2305c-11.4834 11.4844 -17.2256 25.4307 -17.2256 41.8428v118.151c0 16.4131 5.74219 30.3604 17.2256 41.8486c11.4854 11.4854 25.4336 17.2295 41.8457 17.2295h118.151
c16.4121 0 30.3613 -5.74414 41.8457 -17.2295z" />
    <glyph glyph-name="uniF132" unicode="&#xf132;" 
d="M5.90723 172.308c-3.93848 3.93848 -5.90723 9.84668 -5.90723 13.7852s1.96875 9.8457 5.90723 13.7842l27.5693 27.5693c7.87695 7.87695 19.6924 7.87695 27.5693 0l1.96973 -1.96973l108.308 -116.185c3.93848 -3.93848 9.8457 -3.93848 13.7842 0l263.877 273.724
h1.96973v0c7.87695 7.87695 19.6924 7.87695 27.5693 0l27.5693 -27.5693c7.87598 -7.87695 7.87598 -19.6924 0 -27.5693v0l-315.077 -326.893c-3.93848 -3.93848 -7.87695 -5.90723 -13.7852 -5.90723c-5.90723 0 -9.8457 1.96875 -13.7842 5.90723l-153.601 165.416z" />
    <glyph glyph-name="uniF192" unicode="&#xf192;" 
d="M512 440.749v-257.143c0 -160.273 -58.5703 -240.399 -175.732 -240.399c-12.9551 0 -32.7471 0.892578 -59.4199 2.56934v99.5039c81.041 0 121.452 37.4717 121.452 112.395l-1.30664 45.2441h-83.958v237.787l198.965 0.0429688v0zM25.8672 202.984v0
l-0.0439453 0.0224609v237.786h198.986v-257.121c0 -160.252 -58.5703 -240.378 -175.732 -240.378c-9.47168 0 -25.8447 0.849609 -49.0771 2.54785v99.5039c74.0947 4.31152 111.131 41.8047 111.131 112.416l-1.30566 45.2227h-83.958z" />
    <glyph glyph-name="uniF18B" unicode="&#xf18b;" 
d="M510.894 51.2939c0.730469 -1.71191 1.09668 -4.25293 1.08887 -7.65723c0 -6.54785 -1.20801 -15.0908 -3.63867 -25.6338c-2.42383 -10.5479 -4.95996 -18.8506 -7.63672 -24.9053c-5.09082 -12.1309 -19.874 -24.9805 -44.3525 -38.5518
c-22.7861 -12.3623 -45.3379 -18.5469 -67.6367 -18.5469c-6.54102 0 -12.9053 0.431641 -19.0898 1.26855c-6.18164 0.854492 -13.1455 2.37012 -20.9121 4.55469c-7.75 2.18359 -13.5137 3.94434 -17.2695 5.27832c-3.75488 1.33398 -10.4834 3.81836 -20.1807 7.4541
c-9.69336 3.64453 -15.6299 5.82422 -17.8135 6.54785c-23.7539 8.48926 -44.9717 18.5488 -63.6367 30.1826c-31.0312 19.1504 -63.0908 45.2725 -96.1816 78.3613c-33.0889 33.0918 -59.2129 65.1582 -78.3555 96.1865c-11.6348 18.668 -21.6953 39.8779 -30.1787 63.6357
c-0.727539 2.18262 -2.91113 8.11816 -6.54395 17.8164c-3.6377 9.69922 -6.12207 16.4258 -7.45312 20.1807c-1.33008 3.75195 -3.08887 9.51367 -5.26953 17.2705c-2.18359 7.75879 -3.69922 14.7295 -4.54785 20.9102
c-0.848633 6.1875 -1.27246 12.5508 -1.27246 19.0908c0 22.2998 6.18066 44.8496 18.5439 67.6328c13.5771 24.4805 26.4248 39.2676 38.5459 44.3555c6.06055 2.6709 14.3613 5.21289 24.9092 7.63672c10.5449 2.42773 19.0889 3.6377 25.6377 3.6377
c3.39062 0 5.9375 -0.367188 7.63477 -1.09375c4.36523 -1.44922 10.7881 -10.666 19.2676 -27.6318c2.66992 -4.60547 6.30371 -11.1533 10.9082 -19.6328c4.60742 -8.48438 8.84668 -16.1846 12.7295 -23.0928c3.88379 -6.90918 7.63672 -13.3936 11.2695 -19.4492
c0.728516 -0.974609 2.84863 -4.00195 6.36719 -9.09277c3.51562 -5.09375 6.12207 -9.39062 7.81836 -12.9121c1.69531 -3.51465 2.54395 -6.97168 2.54395 -10.3643c0 -4.84668 -3.4541 -10.9043 -10.3623 -18.1777
c-6.91113 -7.27051 -14.4209 -13.9395 -22.5449 -19.9951c-8.11816 -6.05664 -15.6357 -12.4834 -22.5439 -19.2676c-6.90918 -6.78906 -10.3643 -12.3672 -10.3643 -16.7285c0 -2.18359 0.607422 -4.90918 1.81738 -8.18164
c1.20996 -3.27148 2.24023 -5.75781 3.08887 -7.45312c0.847656 -1.70117 2.5459 -4.60645 5.09277 -8.72949c2.54395 -4.11914 3.94043 -6.42285 4.18262 -6.9082c18.4229 -33.2139 39.5176 -61.6943 63.2695 -85.457c23.7598 -23.75 52.2422 -44.8418 85.4521 -63.2695
c0.483398 -0.243164 2.78125 -1.6377 6.91309 -4.18359c4.12402 -2.55371 7.02637 -4.24512 8.71777 -5.09961c1.70703 -0.836914 4.19336 -1.875 7.46094 -3.08691c3.26953 -1.20312 5.99805 -1.81348 8.18652 -1.81348c4.3584 0 9.9375 3.45312 16.7285 10.3652
c6.78125 6.90918 13.207 14.4189 19.2656 22.543c6.05664 8.12891 12.7256 15.6377 19.9961 22.5518c7.26953 6.9043 13.3242 10.3604 18.1719 10.3604c3.39453 0 6.85059 -0.850586 10.3652 -2.54102c3.52148 -1.7002 7.81836 -4.30664 12.9141 -7.81934
c5.09082 -3.52344 8.12109 -5.6416 9.08887 -6.36816c6.05664 -3.63184 12.5381 -7.38867 19.4561 -11.2666c6.9043 -3.87988 14.6064 -8.125 23.0908 -12.7314c8.47754 -4.60742 15.0293 -8.23828 19.627 -10.9102c16.9727 -8.47754 26.1865 -14.9053 27.6348 -19.2686z
" />
    <glyph glyph-name="uniF13F" unicode="&#xf13f;" 
d="M256 448c141.154 0 256 -114.836 256 -256s-114.846 -256 -256 -256s-256 114.836 -256 256s114.846 256 256 256zM256 -44.3076c130.294 0 236.308 106.014 236.308 236.308s-106.014 236.308 -236.308 236.308s-236.308 -106.014 -236.308 -236.308
s106.014 -236.308 236.308 -236.308zM376.635 296.999c3.62402 4.07715 9.83691 4.44141 13.9131 0.817383c4.06641 -3.60352 4.43066 -9.83594 0.817383 -13.8926l-157.539 -177.23c-1.93945 -2.18652 -4.64746 -3.30859 -7.36426 -3.30859
c-2.16699 0 -4.34277 0.708984 -6.1543 2.15625l-98.4619 78.7695c-4.24316 3.39648 -4.93262 9.58984 -1.53516 13.8438c3.38672 4.2334 9.59961 4.93262 13.833 1.53516l91.166 -72.9297z" />
    <glyph glyph-name="uniF12E" unicode="&#xf12e;" 
d="M426.344 125.656l58.3447 58.3438h-484.688v16h484.688l-57.7607 58.3438l11.9043 11.3125l73.168 -72v-11.3125l-73.168 -72z" />
    <glyph glyph-name="uniF12C" unicode="&#xf12c;" 
d="M404.642 130.834l59.3252 -59.541c10.9141 -10.8066 16.6416 -23.666 16.6416 -37.0654c0 -13.292 -5.61914 -26.2588 -16.3174 -37.3887c-4.64648 -4.86328 -9.40137 -9.50977 -14.0479 -13.9404c-6.80762 -6.5918 -13.292 -12.751 -18.9111 -19.5586
c-0.107422 -0.216797 -0.324219 -0.324219 -0.431641 -0.541016c-16.4258 -17.8301 -37.3896 -26.7988 -62.3516 -26.7988c-2.16113 0 -4.53809 0.108398 -6.80762 0.21582c-37.0654 2.37793 -70.2402 16.3174 -95.0938 28.0957
c-65.0527 31.4463 -122.001 76.0752 -169.332 132.592c-39.0098 46.8984 -65.1611 90.6631 -82.667 137.886c-7.13184 19.2344 -16.4248 48.627 -13.8311 80.1816c1.72852 19.5586 9.61719 36.416 23.4492 50.248l36.7402 37.0645
c0.108398 0.108398 0.108398 0.108398 0.21582 0.216797c10.8066 10.374 23.5576 15.8848 36.7412 15.8848s25.7188 -5.51074 36.2002 -15.8848c7.02441 -6.4834 13.832 -13.3994 20.3154 -20.0996c3.24219 -3.45801 6.7002 -6.91602 10.0498 -10.2656l29.501 -29.501
c22.6924 -22.6924 22.6924 -52.085 0 -74.7783c-3.02539 -3.02539 -6.05176 -6.15918 -9.07715 -9.18457c-7.99609 -8.10547 -16.209 -16.5342 -25.0703 -24.6387c6.5918 -14.5879 15.6689 -28.96 29.1768 -46.0342c27.8799 -34.2549 56.9482 -60.7295 88.9346 -81.0449
c3.13379 -1.94531 6.80762 -3.78223 10.6973 -5.72754c2.70215 -1.40527 5.51172 -2.80957 8.32129 -4.32227l34.1475 34.0391c10.9141 10.9141 23.665 16.6416 36.9561 16.6416c13.4004 0 26.043 -5.83594 36.5254 -16.75zM443.327 17.0459
c11.0225 11.4541 11.0225 22.8008 -0.108398 33.8232l-59.541 59.541l-0.216797 0.216797c-3.34961 3.67383 -8.86035 7.88867 -15.5605 7.88867c-6.80762 0 -12.6426 -4.43066 -16.3174 -8.10547l-36.957 -36.9561c-1.83691 -1.83789 -7.45605 -7.45703 -16.4248 -7.45703
c-3.56641 0 -7.02441 0.865234 -10.6982 2.70215c-0.431641 0.21582 -0.864258 0.540039 -1.29688 0.755859c-3.13379 1.94531 -6.80762 3.78223 -10.6982 5.72754c-4.32227 2.16113 -8.86035 4.43066 -13.291 7.24023c-34.6875 21.9365 -66.1338 50.5723 -95.958 87.3135
l-0.108398 0.107422c-16.4248 20.8564 -27.2314 38.3623 -34.9033 56.9482c-0.108398 0.324219 -0.216797 0.648438 -0.324219 0.972656c-1.94531 6.16016 -3.6748 15.2373 5.61914 24.5303c0.107422 0.21582 0.324219 0.324219 0.540039 0.540039
c9.40137 8.42871 18.0459 17.0742 27.123 26.3672c3.13379 3.02539 6.16016 6.15918 9.29395 9.29297c11.4541 11.4551 11.4541 22.0449 0 33.499l-29.501 29.501c-3.45801 3.56543 -6.91602 7.02344 -10.2656 10.4814c-6.5918 6.80859 -12.8594 13.1836 -19.4512 19.3428
c-0.108398 0.108398 -0.21582 0.216797 -0.324219 0.324219c-3.45801 3.45801 -8.96875 7.56445 -15.7773 7.56445c-5.51074 0 -11.1299 -2.70117 -16.4248 -7.67188l-36.8486 -36.8486c-8.96973 -8.96973 -13.832 -19.4512 -14.9131 -32.0947
c-1.62109 -19.7754 2.05371 -40.7393 12.1035 -67.6465c16.3164 -44.0889 40.9551 -85.1514 77.8037 -129.564c44.6289 -53.2744 98.3359 -95.3105 159.498 -124.919c22.3691 -10.6982 52.1934 -23.2334 84.2881 -25.2861
c1.62012 -0.108398 3.34961 -0.108398 4.9707 -0.108398c16.8574 0 29.7168 5.51074 40.6309 17.1816c6.69922 7.88867 13.832 14.9121 20.8555 21.6123c4.64648 4.53906 8.96875 8.64453 13.1836 13.1836c-0.108398 -0.108398 -0.108398 0 0 0zM276.697 326.209
c-7.99707 1.29688 -13.1836 8.96875 -11.7793 16.8574c1.40527 7.88867 8.86133 13.1836 16.8574 11.8867c34.2559 -5.83594 65.4854 -22.0449 90.2314 -46.791s40.9551 -55.9756 46.79 -90.2305c1.29688 -7.99707 -3.99805 -15.5605 -11.9941 -16.8574
c-0.864258 -0.108398 -1.62109 -0.216797 -2.48535 -0.216797c-7.02441 0 -13.1836 4.9707 -14.3721 12.1035c-4.86328 28.3115 -18.1543 54.0303 -38.6865 74.5615c-20.5312 20.5322 -46.25 33.9316 -74.5615 38.6865zM511.405 222.146
c1.40527 -7.8877 -3.99805 -15.4521 -11.8867 -16.6406c-0.864258 -0.108398 -1.62012 -0.216797 -2.48535 -0.216797c-7.02344 0 -13.1836 4.9707 -14.3721 12.1035c-8.53613 50.3564 -32.3096 96.2822 -68.835 132.807c-36.5244 36.417 -82.4502 60.2979 -132.807 68.835
c-7.99707 1.4043 -13.292 8.86133 -11.9951 16.8574c1.40527 7.88867 8.86133 13.292 16.75 11.8867c56.4072 -9.61719 107.736 -36.2002 148.584 -77.0479c40.8467 -40.8467 67.4297 -92.1758 77.0469 -148.584z" />
    <glyph glyph-name="uniF1A4" unicode="&#xf1a4;" 
d="M489.836 214.164c12.2402 0 22.1641 -9.92188 22.1641 -22.1611s-9.9248 -22.1631 -22.1641 -22.1631h-414.168l98.8262 -98.8379c8.6582 -8.65039 8.6582 -22.6865 0 -31.3398c-4.32715 -4.33008 -9.99902 -6.49219 -15.6699 -6.49219
c-5.66992 0 -11.3418 2.16211 -15.6689 6.49219l-136.662 136.671c-8.65723 8.65039 -8.65723 22.6875 0 31.3408l136.662 136.664c8.64453 8.65723 22.6807 8.65723 31.3389 0c8.6582 -8.65137 8.6582 -22.6875 0 -31.3408l-98.8262 -98.833h414.168z" />
    <glyph glyph-name="uniF102" unicode="&#xf102;" 
d="M0 335.619v43.8936h512v-43.8936h-512zM0 171.396v43.8936h512v-43.8936h-512zM0 4.4873v43.9092h512v-43.9092h-512z" />
    <glyph glyph-name="uniF17C" unicode="&#xf17c;" 
d="M69.6182 -23.373v198.262l189.016 158.376l178.044 -158.376v-194.965s0.644531 -14.25 -13.5479 -14.25h-126.333l0.227539 105.413s1.23145 17.4326 -18.7783 17.4326h-53.5498c-16.9209 0 -15.1025 -17.4326 -15.1025 -17.4326l-0.189453 -105.754
s-115.152 -0.151367 -129.061 -0.151367c-11.1797 0 -10.7256 11.4453 -10.7256 11.4453zM0 189.632l260.207 229.187l251.793 -228.088s-15.1777 -29.2197 -55.6904 0l-196.103 175.846l-209.158 -176.944c-34.999 -29.5801 -51.0488 0 -51.0488 0zM451.553 366.993
v-103.783l-50.2334 42.6162l-0.208008 61.167h50.4414z" />
    <glyph glyph-name="uniF105" unicode="&#xf105;" 
d="M0 213.942v234.058h234.058v-234.058h-234.058zM277.942 213.942v234.058h234.058v-234.058h-234.058zM0 -64v234.058h234.058v-234.058h-234.058zM277.942 -64v234.058h234.058v-234.058h-234.058z" />
    <glyph glyph-name="uniF10C" unicode="&#xf10c;" 
d="M256 -38.5986c-127.008 0 -230.599 103.591 -230.599 230.599s103.591 230.599 230.599 230.599s230.599 -103.194 230.599 -230.599s-103.591 -230.599 -230.599 -230.599zM256 390.053c-109.147 0 -198.053 -88.9053 -198.053 -198.053
s88.9053 -198.053 198.053 -198.053s198.053 88.9053 198.053 198.053s-88.9053 198.053 -198.053 198.053zM202.815 76.8994c-6.35059 6.35059 -6.35059 16.6699 0 23.0195l93.2715 93.2715l-93.2715 93.2715c-6.35059 6.35059 -6.35059 16.6699 0 23.0205
s16.6699 6.35059 23.0205 0l104.781 -104.781c3.1748 -3.17578 4.7627 -7.14453 4.7627 -11.5107c0 -4.36523 -1.58789 -8.33496 -4.7627 -11.5098l-104.781 -104.781c-3.17578 -3.17578 -7.54102 -4.7627 -11.5107 -4.7627c-4.36523 0 -8.33496 1.58691 -11.5098 4.7627z
" />
    <glyph glyph-name="uniF1C6" unicode="&#xf1c6;" 
d="M510.293 376.32c1.1084 -1.47754 1.70703 -3.27344 1.70703 -5.12012v-401.066c0 -18.8516 -15.2822 -34.1338 -34.1338 -34.1338c-18.8506 0 -34.1328 15.2822 -34.1328 34.1338v401.066c0 1.84668 0.598633 3.64258 1.70703 5.12012l25.5996 34.1328
c0.362305 0.441406 0.767578 0.84668 1.20996 1.20996c3.77051 3.10156 9.3418 2.56055 12.4434 -1.20996zM494.934 -29.8662v17.0664h-34.1338v-17.0664c0 -9.42676 7.64062 -17.0674 17.0664 -17.0674c9.42676 0 17.0674 7.64062 17.0674 17.0674zM494.934 4.2666v17.0664
h-34.1338v-17.0664h34.1338zM494.934 38.4004v307.199h-34.1338v-307.199h34.1338zM494.934 362.667v5.69141l-17.0674 22.75l-17.0664 -22.75v-5.69141h34.1338zM418.167 448c4.71289 0 8.53418 -3.82031 8.53418 -8.5332v-426.667
c0 -0.178711 -0.102539 -0.34082 -0.102539 -0.520508c-0.0488281 -0.755859 -0.198242 -1.50195 -0.444336 -2.21875c-0.09375 -0.272461 -0.162109 -0.529297 -0.28125 -0.792969c-0.415039 -0.928711 -0.993164 -1.77539 -1.70703 -2.50098l-68.2666 -68.2666
c-1.60156 -1.59668 -3.77051 -2.49512 -6.0332 -2.5h-307.199c-23.5527 0.0273438 -42.6396 19.1143 -42.667 42.667v273.066c0.0253906 20.2676 14.2812 37.7305 34.1338 41.8135v145.92c0 4.71289 3.82031 8.5332 8.5332 8.5332h375.467h0.0332031zM256 -21.333v273.066
c0 14.1387 -11.4609 25.5996 -25.5996 25.5996h-187.733c-14.1387 0 -25.6006 -11.4609 -25.6006 -25.5996v-273.066c0 -14.1387 11.4619 -25.6006 25.6006 -25.6006h187.733c14.1387 0 25.5996 11.4619 25.5996 25.6006zM145.066 345.6h-59.7334v-51.1992h59.7334v51.1992z
M85.333 362.667h59.7334v34.1328h-59.7334v-34.1328zM221.866 345.6h-59.7324v-51.1992h59.7324v51.1992zM162.134 362.667h59.7324v34.1328h-59.7324v-34.1328zM238.934 293.547c19.8516 -4.08301 34.1074 -21.5459 34.1328 -41.8135v-25.5996h25.6006v119.466h-59.7334
v-52.0527zM238.934 362.667h59.7334v34.1328h-59.7334v-34.1328zM358.4 -34.8672l39.1338 39.1338h-39.1338v-39.1338zM409.6 21.333v409.601h-358.399v-136.533h17.0664v110.933c0 4.71289 3.82129 8.5332 8.5332 8.5332h307.2c4.71289 0 8.5332 -3.82031 8.5332 -8.5332
v-187.733c0 -4.71191 -3.82031 -8.5332 -8.5332 -8.5332h-110.934v-230.399c-0.0302734 -9.26367 -3.1084 -18.2588 -8.75488 -25.6006h77.0215v59.7334c0 4.71289 3.82129 8.5332 8.5332 8.5332h59.7334zM375.467 345.6h-59.7334v-119.466h59.7334v119.466z
M315.733 362.667h59.7334v34.1328h-59.7334v-34.1328zM230.4 251.733c4.71191 0 8.5332 -3.82129 8.5332 -8.5332v-51.2002c0 -4.71289 -3.82129 -8.5332 -8.5332 -8.5332h-187.733c-4.71289 0 -8.5332 3.82031 -8.5332 8.5332v51.2002
c0 4.71191 3.82031 8.5332 8.5332 8.5332h187.733zM221.866 200.533v34.1338h-170.666v-34.1338h170.666zM238.934 98.1338c4.71191 0 8.5332 -3.82129 8.5332 -8.53418v-102.399c0 -4.71289 -3.82129 -8.5332 -8.5332 -8.5332h-51.2002
c-4.71289 0 -8.5332 3.82031 -8.5332 8.5332v102.399c0 4.71289 3.82031 8.53418 8.5332 8.53418h51.2002zM230.4 -4.2666v85.333h-34.1338v-85.333h34.1338zM238.934 166.4c4.71191 0 8.5332 -3.82129 8.5332 -8.53418v-34.1328
c0 -4.71289 -3.82129 -8.5332 -8.5332 -8.5332h-51.2002c-4.71289 0 -8.5332 3.82031 -8.5332 8.5332v34.1328c0 4.71289 3.82031 8.53418 8.5332 8.53418h51.2002zM230.4 132.267v17.0664h-34.1338v-17.0664h34.1338zM162.134 98.1338
c4.71191 0 8.5332 -3.82129 8.5332 -8.53418v-34.1328c0 -4.71289 -3.82129 -8.5332 -8.5332 -8.5332h-51.2002c-4.71289 0 -8.5332 3.82031 -8.5332 8.5332v34.1328c0 4.71289 3.82031 8.53418 8.5332 8.53418h51.2002zM153.6 64v17.0664h-34.1328v-17.0664h34.1328z
M162.134 166.4c4.71191 0 8.5332 -3.82129 8.5332 -8.53418v-34.1328c0 -4.71289 -3.82129 -8.5332 -8.5332 -8.5332h-51.2002c-4.71289 0 -8.5332 3.82031 -8.5332 8.5332v34.1328c0 4.71289 3.82031 8.53418 8.5332 8.53418h51.2002zM153.6 132.267v17.0664h-34.1328
v-17.0664h34.1328zM85.333 98.1338c4.71289 0 8.5332 -3.82129 8.5332 -8.53418v-34.1328c0 -4.71289 -3.82031 -8.5332 -8.5332 -8.5332h-51.1992c-4.71289 0 -8.53418 3.82031 -8.53418 8.5332v34.1328c0 4.71289 3.82129 8.53418 8.53418 8.53418h51.1992zM76.7998 64
v17.0664h-34.1328v-17.0664h34.1328zM85.333 166.4c4.71289 0 8.5332 -3.82129 8.5332 -8.53418v-34.1328c0 -4.71289 -3.82031 -8.5332 -8.5332 -8.5332h-51.1992c-4.71289 0 -8.53418 3.82031 -8.53418 8.5332v34.1328c0 4.71289 3.82129 8.53418 8.53418 8.53418h51.1992
zM76.7998 132.267v17.0664h-34.1328v-17.0664h34.1328zM162.134 29.8662c4.71191 0 8.5332 -3.82031 8.5332 -8.5332v-34.1328c0 -4.71289 -3.82129 -8.5332 -8.5332 -8.5332h-51.2002c-4.71289 0 -8.5332 3.82031 -8.5332 8.5332v34.1328
c0 4.71289 3.82031 8.5332 8.5332 8.5332h51.2002zM153.6 -4.2666v17.0664h-34.1328v-17.0664h34.1328zM85.333 29.8662c4.71289 0 8.5332 -3.82031 8.5332 -8.5332v-34.1328c0 -4.71289 -3.82031 -8.5332 -8.5332 -8.5332h-51.1992
c-4.71289 0 -8.53418 3.82031 -8.53418 8.5332v34.1328c0 4.71289 3.82129 8.5332 8.53418 8.5332h51.1992zM76.7998 -4.2666v17.0664h-34.1328v-17.0664h34.1328z" />
    <glyph glyph-name="uniF117" unicode="&#xf117;" 
d="M0 175.121v33.7578h512v-33.7578h-512z" />
    <glyph glyph-name="uniF19D" unicode="&#xf19d;" 
d="M248.818 340.053c2.62891 -2.64746 3.4375 -5.25684 3.68945 -8.91406c0.286133 -4.12793 -2.54492 -9.02832 -6.23926 -10.8818c-21.6963 -10.8799 -155.73 -103.117 -119.436 -132.044c1.66602 -1.3291 1.96289 -2.96875 1.50488 -4.46094
c20.9219 -5.7334 41.4736 -7.49805 63.5176 -3.2168c9.66309 1.87793 14.5469 -6.54297 12.2432 -13.4473c3.05957 -2.33594 5.1709 -5.98242 5.1416 -11.0322c-0.362305 -60.251 -3.89062 -120.968 -9.7793 -180.93c-0.803711 -8.2168 -8.58691 -10.8369 -13.9854 -8.02637
c-12.6982 -14.3711 -48.6523 -7.5498 -64.6523 -6.87207c-33.4062 1.41211 -67.4688 3.56836 -100.47 9.11914c-9.06641 1.52734 -9.72559 12.582 -4.62988 18.2021c-19.5605 17.3906 -15.3213 76.0957 -15.3672 95.8994c-0.112305 47.6025 -2.82617 100.532 10.665 146.813
c24.2197 83.0723 104.138 218.207 210.103 192.522c6.03125 -1.45996 8.33789 -8.59473 6.4248 -13.7871c3.69238 -9.89355 4.67285 -22.5791 7.39453 -31.0938c3.86621 -12.0771 8.92383 -24.2568 12.2119 -36.6689c0.556641 -0.396484 1.15723 -0.672852 1.66309 -1.18164
zM57.9258 281.414c-5.4873 -10.8477 -10.2959 -22.126 -14.2002 -33.8584c19.6709 -15.542 39.1475 -31.3828 58.3438 -47.5703c-2.63867 9.7334 0.583984 21.1328 7.50195 33.1729c-19.7969 11.584 -36.7715 32.5215 -51.5605 48.1172
c-0.0400391 0.0449219 -0.0449219 0.09375 -0.0849609 0.138672zM29.1387 -9.4043c16.1758 -0.536133 32.3203 -1.46875 48.4814 -2.30176c-3.13477 2.77539 -6.08984 5.54297 -8.79297 8.0293c-13.1816 12.1309 -25.2998 25.251 -36.5459 39.1797
c-0.276367 -15.2764 -1.1416 -30.3252 -3.14258 -44.9072zM120.823 -13.2891c5.03906 -0.0644531 11.8955 0.679688 19.292 1.37402c-20.4844 14.1084 -37.8691 35.0352 -54.3193 52.5586c-17.8154 18.9795 -35.418 38.0518 -54.6533 55.5391
c0.602539 -16.6836 1.18652 -33.377 1.18066 -49.8457c1.21387 0.244141 2.5166 -0.0537109 3.62793 -1.38184c11.3115 -13.5537 23.5098 -26.5479 36.79 -38.1992c8.45215 -7.41895 17.7676 -13.2754 26.874 -19.4668
c7.06445 -0.267578 14.1328 -0.487305 21.208 -0.578125zM159.805 -10.8301c7.38867 -0.0263672 14.3896 -0.75 19.7959 -3.09961c-1.61816 23.8467 -1.81348 47.7764 -1.51074 71.7227c-26.29 19.2334 -48.3535 46.8848 -70.751 70.1582
c-24.5381 25.5 -49.2793 50.791 -74.1816 75.9316c-1.07227 -7.21973 -1.92969 -14.5039 -2.40332 -21.9014c-0.458008 -7.16406 -0.683594 -14.4355 -0.803711 -21.752c25.6631 -21.9951 49.1055 -46.748 73.4346 -70.1641
c13.8643 -13.3418 27.6914 -26.7773 42.1289 -39.5059c7.41113 -6.53418 17.6055 -18.623 26.8691 -22.2881c5.86523 -2.31738 5.27051 -11.0078 -1.52441 -11.2656c-23.5381 -0.875977 -52.0127 40.3184 -66.0781 54.9248
c-24.7998 25.7598 -48.9766 52.3691 -74.9131 77.0439c0.015625 -13.7949 0.393555 -27.748 0.889648 -41.7676c22.2012 -18.2607 42.8389 -38.0996 63.2783 -58.3242c20.999 -20.7793 45.3867 -38.6123 65.7695 -59.7129zM180.075 154.928
c-7.80957 -1.67773 -15.8525 -2.46191 -23.9219 -2.56445c7.92676 -7.32422 15.7529 -14.7451 23.4902 -22.2607c0.168945 8.27832 0.375 16.5596 0.431641 24.8252zM131.898 154.236c-7.58203 1.25098 -15.0293 3.04395 -22.1426 5.43555
c-5.80566 1.94824 -10.7705 7.18359 -10.4375 13.71c0.198242 3.89453 1.26367 6.22363 3.41309 9.0498c-20.1631 19.1582 -40.7334 37.9072 -61.709 56.2939c-2.58203 -8.80957 -4.83008 -17.7656 -6.48047 -26.9473c27.9463 -24.165 54.4697 -49.917 81.0977 -75.5215
c20.2754 -19.499 43.04 -38.0762 62.793 -58.5068c0.238281 10.7061 0.533203 21.4111 0.806641 32.1172c-1.62402 0.179688 -3.25586 0.75 -4.73145 2.22949c-14.127 14.1699 -28.335 28.2002 -42.6094 42.1396zM116.831 244.255
c6.32324 8.68359 14.2236 17.5215 22.877 26.1855c-12.0156 3.12988 -23.4766 14.5156 -32.7979 22.1621c-9.31738 7.64648 -18.2178 15.748 -26.8848 24.1045c-6.54492 -8.76367 -12.7148 -17.8457 -18.0518 -27.5234
c0.918945 -0.101562 1.85156 -0.419922 2.71387 -1.23438c10.2959 -9.75488 20.5732 -19.5977 31.5498 -28.5947c6.52051 -5.34473 13.7734 -10.0039 20.5938 -15.0996zM146.944 277.474c5.9375 5.60742 12.1533 11.043 18.4092 16.3105
c-8.96484 6.05176 -16.5576 14.9629 -24.2842 22.0996c-11.3564 10.4893 -23.1426 20.4102 -35.4121 29.7705c-6.99023 -6.6709 -13.6611 -13.6875 -19.7832 -21.21c9.85156 -9.2168 20.0078 -18.21 30.8877 -26.1143c9.28809 -6.74512 20.8975 -11.7559 29.2051 -19.5654
c0.43457 -0.407227 0.726562 -0.84668 0.977539 -1.29102zM145.289 327.399c9.63965 -7.79102 22.0791 -15.3838 30.5479 -25.0176c8.95312 7.14453 17.7432 13.6875 25.8477 19.418c-10.9844 6.9873 -20.418 17.3389 -29.6982 25.915
c-9.81055 9.06934 -19.7559 17.8428 -30.293 25.9121c-10.2715 -6.40039 -19.9775 -13.5879 -29.0283 -21.5205c11.1426 -7.86914 21.9932 -16.1152 32.624 -24.707zM214.691 330.691c4.76172 3.12695 9.09375 5.84082 12.6973 7.94434
c-6.57227 12.4062 -12.7236 25.3145 -17.918 37.9893c-2.74414 6.69531 -6.46777 14.832 -7.86914 22.7627c-17.54 -4.54688 -33.998 -11.1963 -49.2988 -19.5684c8.56543 -6.02539 16.8496 -12.4561 24.9775 -19.1484c12.0078 -9.88867 26.3896 -18.8555 37.4111 -29.9795z
M504.884 305.098c9.02344 -4.90527 10.6396 -19.6914 -2.06738 -23.4043c-29.749 -8.69629 -77.0762 -37.4248 -94.2305 -72.2402c0.513672 -2.2373 -0.262695 -4.68066 -2.37695 -5.5293c-2.37598 -6.07129 -3.89551 -12.2812 -4.10645 -18.5986
c28.5596 1.63965 58.2256 4.01855 85.333 -6.51562c0.387695 -0.150391 0.621094 -0.413086 0.97168 -0.592773c5.43359 -1.19434 10.1465 -5.27734 10.3125 -12.6396c0.787109 -34.8018 -1.89941 -69.7188 -4.12891 -104.427
c-1.18945 -18.5156 4.55469 -63.0371 -12.9238 -74.8203c-2.86914 -1.93652 -6.27148 -1.82715 -9.32031 -0.677734c0.65332 -5.24316 -5.03418 -9.43066 -9.7793 -6.34668c-13.6123 -13.8623 -41.1006 -13.8545 -58.7559 -14.8105
c-11.1855 -0.602539 -22.376 -0.873047 -33.5693 -0.961914c-1.10645 -2.13477 -3.74805 -3.43457 -6.61719 -2.10547c-1.19238 0.548828 -2.30176 1.3584 -3.45898 2.0332c-15.5039 0.104492 -31.0088 0.712891 -46.4746 1.92871
c-0.426758 0.0322266 -0.723633 0.225586 -1.12305 0.294922c-8.19043 -6.64453 -23.1855 -3.60547 -21.8379 9.44141c8.49316 82.3457 6.19141 165.045 10.8535 247.589c0.256836 4.59961 3.58984 6.91504 7.01172 7.04883c1.63672 39.584 19.9238 77.1348 43.916 109.381
c23.126 31.0801 73.7188 76.4141 116.419 60.6416c6.29004 -2.32227 8.7334 -8.30273 7.26855 -13.417c0.0986328 -0.166016 0.235352 -0.235352 0.329102 -0.410156c7.2627 -13.2559 10.6338 -28.4814 15.7832 -42.6592c4.5918 -12.6299 8.96973 -25.2725 12.5723 -38.2021
zM454.784 374.787c-4.74414 -1.17871 -9.43555 -2.31445 -14.0947 -3.5625c6.5752 -5.58887 13.4307 -10.9951 20.1875 -16.5039c-2.6709 6.67676 -4.83887 13.3848 -6.09277 20.0664zM338.065 252.847c-3.83594 -10.9355 -7.19824 -22.0332 -9.45215 -33.3818
c16.9434 -16.1201 34.0117 -32.1113 51.1025 -48.0771c0.178711 1.94238 0.739258 3.92773 1.82422 6.33105c0.345703 0.771484 0.913086 1.37695 1.43555 2.02051c-5.9873 9.44336 -5.55859 20.5703 -0.948242 32.2402c-6.21289 3.95215 -12.0078 8.71777 -17.0957 13.125
c-9.80762 8.49805 -18.6172 17.835 -26.8662 27.7422zM318.489 -14.8193c5.44434 0.391602 10.8936 0.672852 16.3457 0.983398c-5.25684 5.7168 -10.1787 11.6973 -14.9043 17.8486c-0.439453 -6.27441 -0.849609 -12.5547 -1.44141 -18.832zM349.136 -12.9893
c7.26367 0.382812 14.5264 0.760742 21.7842 1.22461c-3.83105 3.70215 -7.54492 7.4668 -11.1992 10.9229c-13.3574 12.626 -26.3838 25.6172 -37.9365 39.9209c-0.238281 -7.33789 -0.607422 -14.6709 -1.00684 -22.0059
c0.291992 -0.204102 0.594727 -0.370117 0.849609 -0.688477c6.98633 -8.80371 14.3574 -17.3447 22.542 -25.0684c1.57812 -1.4873 3.27637 -2.89941 4.9668 -4.30566zM396.151 -9.7207c5.33691 0.5625 10.915 1.71191 16.5869 3.03223
c-13.0361 11.7773 -25.082 26.9072 -35.7637 37.4414c-18.0625 17.8076 -36.4307 35.2783 -54.7188 52.8379c0.0673828 -10.4648 0.0380859 -20.9297 -0.166016 -31.3867c1.84863 0.490234 3.83984 0.222656 5.3125 -1.47363
c12.9619 -14.9033 27.3574 -28.666 42.1455 -41.7432c7.41113 -6.55859 15.6836 -12.5088 23.3057 -18.9951c1.09863 0.107422 2.20215 0.168945 3.29785 0.287109zM435.237 -1.40527c2.09766 0.428711 4.14453 0.688477 6.21289 1.01562
c-19.6221 19.7373 -38.71 40.1553 -59.1445 59.1875c-21.9229 20.4199 -43.5703 41.4805 -61.0195 65.8984c0.297852 -8.69141 0.582031 -17.3818 0.731445 -26.0703c22.3525 -18.4111 43.3516 -38.6064 64.7549 -58.0732c14.4023 -13.0957 34.6064 -26.502 48.4648 -41.958
zM405.944 55.9609c17.958 -15.5957 40.2617 -32.0771 55.4658 -51.9355c-0.619141 4.40234 -0.935547 9.12305 -0.806641 14.2236c-23.8682 23.3594 -44.2217 50.6543 -68.251 74.2197c-24.1035 23.6436 -49.5449 46.4219 -72.6924 71.0879
c0.37793 -7.49805 0.683594 -15 1.00195 -22.502c0.739258 -0.339844 1.44434 -0.811523 2.02539 -1.56738c24.1475 -31.5732 53.3633 -57.5557 83.2568 -83.5264zM466.061 68.8682c0.131836 2.33691 0.290039 4.67871 0.423828 7.01953
c-1.90234 -2.73242 -5.35059 -4.25391 -8.62109 -1.88867c-25.7441 18.5986 -46.7168 48.1816 -69.0791 70.8467c-20.7422 21.0186 -41.5938 41.9287 -62.2275 63.0479c-0.662109 -4.5625 -1.22168 -9.14355 -1.58887 -13.7461
c-0.294922 -3.74805 -3.41895 -6.06348 -6.53711 -6.31445c0.249023 -4.23047 0.40918 -8.45801 0.642578 -12.6885c29.8965 -26.1113 59.7764 -52.4258 89.084 -79.1846c17.1084 -15.6221 40.0127 -32.9805 54.5898 -53.3818
c1.39551 10.6045 2.98145 20.2656 3.31348 26.29zM471.368 163.346c-15.8467 1.11914 -31.7744 -1.38574 -47.667 -3.80176c8.07227 -8.37793 16.1504 -16.6025 24.9834 -24.2705c6.53418 -5.67188 14.0918 -10.9121 20.3369 -17.1387
c0.894531 15.0674 1.7334 30.1377 2.34668 45.2109zM416.583 158.485c-6.87793 -1.00195 -13.7441 -1.8916 -20.5889 -2.34668c2.91406 -2.74609 5.85645 -5.46289 8.7627 -8.2168c20.332 -19.25 48.3398 -39.5576 62.1914 -64.2432
c0.404297 6.83984 0.822266 13.6768 1.23438 20.5166c-10.5742 7.22363 -19.3105 18.334 -28.4043 27.3701c-8.36426 8.31055 -16.8643 16.9023 -23.1953 26.9199zM387.693 223.409c6.67383 11.1504 16.4746 22.4531 27.6299 33.0068
c-11.5869 4.90527 -21.6309 15.2949 -30.6191 23.7129c-8.03711 7.52832 -15.5098 15.5332 -22.6816 23.8281c-8.01367 -13.5 -15.084 -27.6279 -20.8193 -42.3037c8.36914 -9.51074 17.2158 -18.6973 27.1582 -26.5283c6.0791 -4.78809 12.6992 -8.30078 19.332 -11.7158z
M423.163 263.499c5.08691 4.41797 10.3604 8.62402 15.6592 12.6006c-8.93457 6.5791 -17.1572 14.5469 -25.6953 21.3418c-11.9385 9.5 -24.1494 18.5957 -36.5645 27.4531c-3.06836 -3.81543 -6.03613 -7.71387 -8.7666 -11.7861
c8.0459 -8.59473 16.4551 -16.835 25.5537 -24.334c9.79199 -8.07227 22.2178 -14.915 29.7891 -25.2246c0.0136719 -0.0185547 0.0136719 -0.0341797 0.0244141 -0.0507812zM450.902 284.648c4.97754 3.33008 9.83301 6.26367 14.5635 8.97461
c-8.31836 9.33984 -16.0986 19.4131 -24.8027 28.0859c-11.1396 11.0938 -22.8428 21.5293 -34.917 31.5566c-7.79395 -6.15918 -15.2422 -12.7598 -21.9531 -20.1094c12.5918 -8.22461 25.0039 -16.7119 37.1172 -25.6367
c9.84277 -7.25488 20.8994 -14.3516 29.9922 -22.8711zM481.895 301.942c2.09277 0.894531 4.19336 1.79199 6.09277 2.4541c-2.89355 4.84082 -5.91602 9.8291 -8.91602 14.9033c-17.9102 14.3955 -34.9521 31.167 -51.0273 47.748
c-4.26758 -1.71191 -8.49805 -3.68164 -12.6475 -6.43066c12.3398 -8.92383 24.377 -18.2441 35.5889 -28.583c10.125 -9.33203 21.6533 -19.1055 30.9092 -30.0918z" />
    <glyph glyph-name="uniF1A1" unicode="&#xf1a1;" 
d="M54.8574 448l402.285 -256l-402.285 -256v512z" />
    <glyph glyph-name="uniF120" unicode="&#xf120;" 
d="M506.858 221.764c3.25293 -2.72852 5.1416 -6.82031 5.1416 -11.0176s-1.88867 -8.18457 -5.1416 -10.9121l-226.013 -186.98c-4.30176 -3.46191 -10.0732 -4.19629 -15.1094 -1.88867c-5.03711 2.30859 -8.18457 7.34473 -8.18457 12.8018v97.8965
c-91.3916 -0.314453 -154.452 -6.82031 -231.049 -141.861c-2.51855 -4.51172 -7.24023 -7.13477 -12.2773 -7.13477c-1.15332 0 -2.41309 0.104492 -3.56738 0.419922c-6.29492 1.67871 -10.5977 7.34473 -10.5977 13.7451v11.332
c-0.314453 49.001 -0.628906 123.079 33.1572 185.616c39.2432 72.5039 114.686 111.223 224.439 115.21v98.2119c0 5.45605 3.14746 10.4922 8.0791 12.8008s10.8076 1.57422 15.0049 -1.88867zM285.987 53.8799l189.498 156.866l-189.604 156.446v-82.0527
c0 -7.76465 -6.29492 -14.0605 -14.0596 -14.165c-107.761 -0.944336 -177.642 -33.9961 -213.736 -100.73c-22.7695 -42.0752 -28.2256 -91.8105 -29.4854 -133.467c31.374 45.6436 63.167 74.708 99.8906 91.8105c42.4961 19.832 86.25 21.4053 143.331 21.4053
c3.67188 0 7.34473 -1.57324 9.96777 -4.19629c2.72852 -2.62402 4.19727 -6.19141 4.19727 -9.96875v-81.9482z" />
    <glyph glyph-name="uniF115" unicode="&#xf115;" 
d="M137.275 329.275c0 65.5693 53.1553 118.725 118.725 118.725s118.725 -53.1553 118.725 -118.725c0 -65.5703 -53.1553 -118.725 -118.725 -118.725s-118.725 53.1543 -118.725 118.725zM256 151.188c118.846 0 215.188 -96.3428 215.188 -215.188h-430.377
c0 118.846 96.3428 215.188 215.188 215.188z" />
    <glyph glyph-name="uniF144" unicode="&#xf144;" 
d="M490.581 264.533c12.4082 0 21.4189 -10.667 21.4189 -25.3613v-1.50977l-87.2617 -239.258c-2.35547 -8.82324 -11.042 -15.4707 -20.9072 -15.4707h-381.943c-6.86914 0 -13.2012 3.12305 -17.3818 8.58398c-3.00391 3.93457 -4.49707 8.63574 -4.45508 13.4404
h-0.0507812v372.796c0 12.8506 10.4619 23.3125 23.3135 23.3125h160.281l42.667 -59.7334h211.226c12.8506 0 23.3125 -10.4531 23.3125 -23.3125v-53.4873h29.7812zM17.0664 377.754v-321.426l70.6729 192.743c2.05664 7.70508 8.96094 13.7637 17.2637 15.1553
c1.18555 0.204102 2.40625 0.306641 3.63477 0.306641h335.087v53.4873c0 3.44727 -2.79883 6.24609 -6.24609 6.24609h-220.007l-42.666 59.7334h-151.492c-3.43945 0 -6.24707 -2.79883 -6.24707 -6.24609zM408.482 3.55859l86.3828 236.919
c-0.213867 2.33008 -1.04102 6.98926 -4.28418 6.98926h-29.7812h-352.171c-2.16699 0 -4.08691 -1.46777 -4.65039 -3.55859l-86.9629 -238.532c-0.31543 -1.29688 0.511719 -2.78223 1.0498 -3.48145c0.537109 -0.708008 1.74902 -1.89453 3.82227 -1.89453h381.943
c2.16797 0 4.08789 1.46777 4.65137 3.55859z" />
    <glyph glyph-name="uniF15C" unicode="&#xf15c;" 
d="M456.141 -50.9746c0 -7.20117 -5.82422 -12.9199 -12.8135 -13.0254h-374.442c-7.20117 0 -13.0254 5.82422 -13.0254 13.0254v71.7959c0 88.8457 58.1357 164.349 138.404 190.398c-38.5459 21.709 -64.7021 63.0078 -64.7021 110.342
c0 69.6787 56.7598 126.438 126.438 126.438s126.438 -56.7598 126.438 -126.438c0 -47.334 -26.1562 -88.6328 -64.7021 -110.342c80.1621 -26.0498 138.404 -101.553 138.404 -190.398v-71.7959zM155.4 321.562c0 -55.3828 45.1113 -100.493 100.494 -100.493
s100.493 45.1104 100.493 100.493s-45.1104 100.494 -100.493 100.494s-100.494 -45.1113 -100.494 -100.494zM430.196 -37.9502v58.8779c0 96.1523 -78.1504 174.302 -174.302 174.302c-96.1523 0 -174.303 -78.2559 -174.303 -174.302v-58.8779h348.604z" />
    <glyph glyph-name="uniF128" unicode="&#xf128;" 
d="M486.939 335.222v-0.106445v-238.504c0 -18.7754 -9.33398 -36.0488 -26.2861 -48.8164c-15.7715 -11.8018 -36.3711 -18.3467 -58.2578 -18.3467s-42.4863 6.54492 -58.2578 18.3467c-16.9512 12.7676 -26.2852 30.041 -26.2852 48.8164
s9.33398 36.0488 26.2852 48.8164c15.7715 11.8018 36.4785 18.3467 58.2578 18.3467c20.5996 0 40.2334 -5.79395 55.5762 -16.415v168.015l-263.824 -83.9004v-228.311c0 -18.7754 -9.33398 -36.0488 -26.2852 -48.8164
c-15.7715 -11.8018 -36.3711 -18.3467 -58.2578 -18.3467s-42.4863 6.54492 -58.2578 18.3467c-16.9521 12.7676 -26.2861 30.041 -26.2861 48.8164s9.33398 36.0488 26.2861 48.8164c15.7715 11.8018 36.4775 18.3467 58.2578 18.3467
c20.5996 0 40.2334 -5.79395 55.5752 -16.416v188.078v0.107422v98.3838c0 6.33008 4.07715 11.9092 10.085 13.8398l292.792 93.0195c4.39844 1.39453 9.22656 0.537109 12.9814 -2.14551c3.64844 -2.68262 5.90137 -7.08105 5.90137 -11.6943v-98.2773zM109.604 -35.0322
c30.1475 0 55.5752 17.3809 55.5752 38.1953c0 20.707 -25.4277 38.1943 -55.5752 38.1943c-30.1484 0 -55.5762 -17.4873 -55.5762 -38.1943s25.4277 -38.1953 55.5762 -38.1953zM194.147 261.943l263.824 83.793v68.0215l-263.824 -83.793v-68.0215zM402.503 58.417
c30.041 0 55.4688 17.4873 55.5762 38.1943c0 20.707 -25.4277 38.1953 -55.5762 38.1953s-55.5752 -17.4883 -55.5752 -38.1953s25.4268 -38.1943 55.5752 -38.1943z" />
    <glyph glyph-name="uniF143" unicode="&#xf143;" 
d="M256 448c141.158 0 256 -114.842 256 -256s-114.842 -256 -256 -256s-256 114.842 -256 256s114.842 256 256 256zM256 -46.9336c131.746 0 238.934 107.188 238.934 238.934s-107.188 238.934 -238.934 238.934s-238.934 -107.188 -238.934 -238.934
s107.188 -238.934 238.934 -238.934zM264.533 225.954c14.6777 -3.81445 25.6006 -17.0576 25.6006 -32.9219c0 -18.8242 -15.3096 -34.1328 -34.1338 -34.1328c-15.8545 0 -29.1074 10.9229 -32.9219 25.5996h-60.9443c-4.71094 0 -8.53418 3.81445 -8.53418 8.5332
c0 4.71973 3.82324 8.5332 8.53418 8.5332h60.9443c3.10645 11.9385 12.4502 21.2822 24.3887 24.3887v86.5449c0 4.71875 3.82324 8.5332 8.5332 8.5332s8.5332 -3.81445 8.5332 -8.5332v-86.5449zM256 175.966c9.41211 0 17.0664 7.6543 17.0664 17.0664
s-7.6543 17.0674 -17.0664 17.0674s-17.0664 -7.65527 -17.0664 -17.0674s7.6543 -17.0664 17.0664 -17.0664zM256 363.699c-4.70996 0 -8.5332 3.81445 -8.5332 8.5332v8.5332c0 4.71875 3.82324 8.5332 8.5332 8.5332s8.5332 -3.81445 8.5332 -8.5332v-8.5332
c0 -4.71875 -3.82324 -8.5332 -8.5332 -8.5332zM256 22.3662c4.70996 0 8.5332 -3.81445 8.5332 -8.5332v-8.53418c0 -4.71875 -3.82324 -8.5332 -8.5332 -8.5332s-8.5332 3.81445 -8.5332 8.5332v8.53418c0 4.71875 3.82324 8.5332 8.5332 8.5332zM443.733 201.565
c4.70996 0 8.5332 -3.81348 8.5332 -8.5332c0 -4.71875 -3.82324 -8.5332 -8.5332 -8.5332h-8.5332c-4.71094 0 -8.5332 3.81445 -8.5332 8.5332c0 4.71973 3.82227 8.5332 8.5332 8.5332h8.5332zM76.7998 201.565c4.71094 0 8.5332 -3.81348 8.5332 -8.5332
c0 -4.71875 -3.82227 -8.5332 -8.5332 -8.5332h-8.5332c-4.70996 0 -8.5332 3.81445 -8.5332 8.5332c0 4.71973 3.82324 8.5332 8.5332 8.5332h8.5332zM382.712 331.818c3.33594 3.32812 8.72949 3.33691 12.0654 0c3.33691 -3.33594 3.33691 -8.72949 0 -12.0654
l-6.0332 -6.0332c-1.66406 -1.66406 -3.84766 -2.50098 -6.03223 -2.50098s-4.36914 0.836914 -6.0332 2.50098c-3.33691 3.33594 -3.33691 8.72949 0 12.0654zM123.256 72.3545c3.32715 3.32812 8.72949 3.33594 12.0654 0c3.33691 -3.33691 3.33691 -8.72949 0 -12.0664
l-6.0332 -6.0332c-1.66309 -1.66406 -3.84766 -2.5 -6.03223 -2.5s-4.36914 0.835938 -6.0332 2.5c-3.33691 3.33691 -3.33691 8.72949 0 12.0664zM388.744 72.3545l6.0332 -6.0332c3.33691 -3.33691 3.33691 -8.72949 0 -12.0664
c-1.66406 -1.66406 -3.84863 -2.5 -6.0332 -2.5s-4.36914 0.835938 -6.03223 2.5l-6.0332 6.0332c-3.33691 3.33691 -3.33691 8.72949 0 12.0664c3.33594 3.33594 8.72949 3.33594 12.0654 0zM129.288 331.818l6.0332 -6.0332c3.33691 -3.33594 3.33691 -8.72949 0 -12.0654
c-1.66406 -1.66406 -3.84863 -2.50098 -6.0332 -2.50098s-4.36816 0.836914 -6.03223 2.50098l-6.0332 6.0332c-3.33691 3.33594 -3.33691 8.72949 0 12.0654c3.33594 3.33691 8.72949 3.33691 12.0654 0z" />
    <glyph glyph-name="uniF1AC" unicode="&#xf1ac;" 
d="M366.021 302.012c-4.29102 4.28613 -4.29102 11.2393 0 15.5254l127.244 127.249c4.28516 4.28516 11.2383 4.28516 15.5186 0c4.28613 -4.29199 4.28613 -11.2393 0 -15.5254l-127.244 -127.249c-4.28027 -4.28613 -11.2334 -4.28613 -15.5186 0zM475.984 205.768
c0.537109 -6.02441 -1.61914 -11.9961 -5.89453 -16.2861l-247.513 -247.495c-7.97363 -7.97949 -20.8965 -7.97949 -28.876 0l-55.0527 55.0518l27.1592 27.1582l-77.6074 77.6074l-27.1641 -27.1641l-55.0527 55.0576c-7.97949 7.97363 -7.97363 20.9023 0 28.8818
l247.496 247.496c4.29199 4.29102 10.2627 6.44824 16.2988 5.90527l153.453 -13.9561l-38.3213 -38.3203c-14.2188 2.22168 -29.2666 -2.11328 -40.2246 -13.0723c-18.2139 -18.2139 -18.2139 -47.7539 0 -65.9678c18.2129 -18.2188 47.749 -18.2129 65.9619 0
c10.96 10.959 15.2998 26.0176 13.0723 40.2412l38.3096 38.3096z" />
    <glyph glyph-name="uniF146" unicode="&#xf146;" 
d="M507.597 214.374c3.54395 -3.29883 3.75391 -8.85156 0.456055 -12.3955c-1.71973 -1.85938 -4.06152 -2.79785 -6.42188 -2.79785c-2.14062 0 -4.28906 0.771484 -5.97363 2.3418l-29.1152 27.0361v-292.559h-140.358h-140.358h-140.358v292.55l-29.1152 -27.0361
c-3.56152 -3.29004 -9.11426 -3.08789 -12.4043 0.456055c-3.29785 3.55273 -3.08789 9.10547 0.456055 12.4043l251.593 233.626l87.7236 -81.46v34.3965h87.7236v-115.849zM361.265 383.392v-33.1426l52.6338 -48.8701v82.0127h-52.6338zM203.361 -46.4551h105.269
v184.772c0 4.53516 -3.68457 8.21973 -8.21973 8.21973h-88.8291c-4.53516 0 -8.21973 -3.68457 -8.21973 -8.21973v-184.772zM448.988 -46.4551v291.313l-17.5449 16.29v0l-50.1777 46.5898l-125.27 116.322l-192.993 -179.211v-291.305h122.813v184.772
c0 14.2109 11.5537 25.7646 25.7646 25.7646h88.8291c14.2109 0 25.7646 -11.5537 25.7646 -25.7646v-184.772h122.813z" />
    <glyph glyph-name="uniF139" unicode="&#xf139;" 
d="M69.8184 320v-162.909h151.272v-23.2725h-151.272c-12.8467 0 -23.2725 10.4258 -23.2725 23.2725v162.909h23.2725zM442.182 320h23.2725v-162.909c0 -12.8467 -10.4258 -23.2725 -23.2725 -23.2725h-151.272v23.2725h151.272v162.909zM244.363 87.2725
c-12.8457 0 -23.2725 10.4268 -23.2725 23.2734v69.8174c0 12.8467 10.4268 23.2734 23.2725 23.2734h23.2734c12.8457 0 23.2725 -10.4268 23.2725 -23.2734v-69.8174c0 -12.8467 -10.4268 -23.2734 -23.2725 -23.2734h-23.2734zM244.363 180.363v-69.8174h23.2734v69.8174
h-23.2734zM488.728 343.272c12.8467 0 23.2725 -10.4258 23.2725 -23.2725v-325.818c0 -12.8467 -10.4258 -23.2725 -23.2725 -23.2725h-465.455c-12.8467 0 -23.2725 10.4258 -23.2725 23.2725v325.818c0 12.8467 10.4258 23.2725 23.2725 23.2725h128v46.5459
c0 12.8467 10.4268 23.2725 23.2734 23.2725h162.908c12.8467 0 23.2734 -10.4258 23.2734 -23.2725v-46.5459h128zM174.546 389.818v-46.5459h162.908v46.5459h-162.908zM488.728 -5.81836v325.818h-465.455v-325.818h465.455z" />
    <glyph glyph-name="uniF195" unicode="&#xf195;" 
d="M256 -64c-141.16 0 -256 114.84 -256 256s114.84 256 256 256s256 -114.84 256 -256s-114.84 -256 -256 -256zM256 430.639c-131.576 0 -238.639 -107.051 -238.639 -238.639c0 -131.576 107.062 -238.639 238.639 -238.639c131.6 0 238.639 107.062 238.639 238.639
c0 131.588 -107.039 238.639 -238.639 238.639zM223.858 102.114c-2.22266 0 -4.44434 0.844727 -6.13477 2.5459c-3.39062 3.37988 -3.39062 8.88965 0 12.2803l78.6592 78.752l-78.6592 78.7393c-3.37988 3.3916 -3.37988 8.90137 0 12.2803
c3.3916 3.3916 8.88965 3.3916 12.2803 0l84.7822 -84.874c3.39062 -3.39062 3.39062 -8.88867 0 -12.2803l-84.7822 -84.874c-1.70117 -1.72461 -3.92383 -2.56934 -6.14551 -2.56934z" />
    <glyph glyph-name="uniF152" unicode="&#xf152;" 
d="M62.5078 181.001c37.0654 45.127 106.798 98.8398 230.139 103.342v83.5537c0 5.02637 2.82715 9.52832 7.3291 11.6221c4.50195 2.19922 9.7373 1.46582 13.6113 -1.6748l193.701 -159.883c3.03711 -2.4082 4.71191 -5.96777 4.71191 -9.8418
c0 -3.76953 -1.6748 -7.43359 -4.60742 -9.8418l-193.91 -160.406c-3.76953 -3.14062 -9.10938 -3.76953 -13.6113 -1.6748c-4.50293 2.09375 -7.3291 6.70117 -7.3291 11.6221v83.2393c-80.3076 -0.314453 -203.335 -6.38672 -268.564 -121.352
c-2.4082 -4.08301 -6.70117 -6.49121 -11.2041 -6.49121c-1.04688 0 -2.19824 0.104492 -3.24512 0.417969c-5.6543 1.46582 -9.52832 6.49219 -9.52832 12.3555c0 43.0332 16.4385 108.996 62.5078 165.013zM305.524 259.109
c-184.277 -1.7793 -253.068 -114.127 -273.066 -193.073c79.4697 90.6738 198.204 90.6738 272.857 90.6738c3.45508 0 6.70117 -1.36133 9.10938 -3.76953s3.76953 -5.75879 3.76953 -9.10938v-68.79l160.824 133.078l-160.824 132.659v-68.79
c0 -7.12012 -5.6543 -12.7734 -12.6699 -12.8789z" />
    <glyph glyph-name="uniF194" unicode="&#xf194;" 
d="M181.675 448h281.252v-512h-413.854v371.991zM169.963 389.131l-58.7393 -62.0361h58.7393v62.0361zM430.926 -32.0156v448.015h-228.945v-120.905h-120.906v-327.109h349.852zM219.296 200.91c-2.14355 0.763672 -4.9707 1.12109 -8.30078 1.15332h-5.99414v17.5273
h90.8867v-17.5273h-11.3711c-5.42578 0 -7.50488 -1.16992 -8.25195 -1.90039c-0.828125 -0.748047 -1.86816 -2.1123 -1.86816 -5.36133c0 -3.05371 1.08887 -9.77832 6.40039 -24.6094l33.0566 -93.875l32.9434 95.3203c5.39258 15.5781 6.22168 21.5566 6.22168 23.749
c0 2.33887 -0.731445 3.45996 -2.74512 4.40234c-3.34668 1.52734 -7.92773 2.30664 -13.6455 2.30664h-5.97754v17.5273h72.4648v-17.5273h-6.00977c-2.20996 0 -4.20801 -0.178711 -5.86426 -0.519531c-1.46191 -0.325195 -2.76172 -0.829102 -3.96387 -1.54297
c-1.16992 -0.714844 -2.33887 -1.70605 -3.39551 -2.9082c-1.25 -1.42969 -2.53418 -3.24902 -3.76855 -5.45801c-1.13672 -2.06348 -3.6875 -7.91113 -8.91797 -23.8623l-57.8936 -167.364h-14.4736l-41.8945 117.543l-41.6494 -117.543h-13.8398l-61.6309 172.188
c-5.58789 15.5459 -7.52051 20.2725 -8.1543 21.4424c-1.44629 2.74512 -3.28125 4.67773 -5.62109 5.96191c-2.43652 1.33203 -6.30273 2.03027 -11.1758 2.03027h-6.00977v17.5273h86.9873v-17.5273h-9.58398c-3.81738 0 -6.66016 -0.714844 -8.21973 -2.0957
c-1.47852 -1.2666 -2.06348 -2.50195 -2.06348 -4.1582c0 -0.438477 0.0976562 -2.19336 1.38086 -7.06641c0.991211 -3.91504 2.61523 -8.90234 4.80859 -14.9443l34.2266 -97.5146l27.29 78.4277l-10.0713 28.6543c-1.2998 3.03809 -2.81055 6.04297 -4.35352 8.6416
c-1.33203 2.24219 -2.85938 4.15918 -4.51562 5.70215c-1.57617 1.39648 -3.37891 2.45312 -5.44238 3.2002z" />
    <glyph glyph-name="uniF10E" unicode="&#xf10e;" 
d="M244.093 22.9209l-225.835 225.836c-6.74805 6.74707 -6.74805 17.4629 0 24.2109c6.74707 6.74707 17.4629 6.74707 24.21 0l196.466 -196.862v329.029c0 9.52539 7.54102 17.0664 17.0664 17.0664s17.0664 -7.54102 17.0664 -17.0664v-328.633l197.259 196.466
c6.74805 6.74707 17.4639 6.74707 24.2109 0c6.74805 -6.74805 6.74805 -17.4639 0 -24.2109l-225.835 -225.836c-1.58789 -1.58789 -3.57227 -2.77832 -5.55664 -3.57227h-0.397461c-1.98438 -0.793945 -3.96875 -1.19043 -6.35059 -1.19043
c-2.38086 0 -4.36523 0.396484 -6.34961 1.19043h-0.397461c-1.98438 0.793945 -3.96875 1.98438 -5.55664 3.57227zM30.1641 -38.5986c-9.52539 0 -17.0664 7.93848 -17.0664 17.0664c0 9.52637 7.54102 17.0674 17.0664 17.0674h451.672
c9.52539 0 17.0664 -7.54102 17.0664 -17.0674c0 -9.52539 -7.54102 -17.0664 -17.0664 -17.0664h-451.672z" />
    <glyph glyph-name="uniF181" unicode="&#xf181;" 
d="M479.999 384c17.665 0 32.001 -14.3359 32 -31.999v-320c0 -17.6641 -14.335 -32 -32 -32h-448c-17.6631 0 -31.999 14.335 -31.999 32v320c0 17.6631 14.3359 31.999 31.999 31.999h448zM31.999 260.96v-206.336l122.816 122.849zM54.624 32.001v0l402.752 0.03125
l-127.424 127.488l-73.8877 -50.8799l-74.3047 50.4961zM479.999 54.624v208.16l-123.328 -84.832zM479.999 300.224v51.7773h-448v-52.3848l224.001 -152.256l223.328 153.823z" />
    <glyph glyph-name="uniF1CF" unicode="&#xf1cf;" 
d="M375.068 306.069c1.86133 -1.86035 2.93066 -4.44043 2.93066 -7.07031s-1.07031 -5.20996 -2.93066 -7.06934c-1.85938 -1.86035 -4.43945 -2.93066 -7.06934 -2.93066s-5.20898 1.07031 -7.06934 2.93066c-1.86133 1.85938 -2.93066 4.43945 -2.93066 7.06934
c0 2.64062 1.07031 5.20996 2.93066 7.07031c1.85938 1.86035 4.43945 2.92969 7.06934 2.92969s5.20996 -1.06934 7.06934 -2.92969zM150 166c5.52246 0 10 -4.47754 10 -10v-80c0 -5.52344 -4.47852 -10 -10 -10h-80c-5.52246 0 -10 4.47656 -10 10v80
c0 5.52246 4.47754 10 10 10h80zM140 86v60h-60v-60h60zM505.826 238.238c3.7373 -1.54785 6.17285 -5.19531 6.17285 -9.23926v-282.999c0 -5.52344 -4.47754 -10 -10 -10h-282.999c-4.0459 0 -7.69141 2.43555 -9.23926 6.17285
c-1.54688 3.73633 -0.691406 8.03809 2.16797 10.8984l62.2988 62.2988l0.00488281 0.00488281l0.00488281 0.00488281l118.784 118.784c0.000976562 0.00195312 0.00195312 0.00292969 0.00390625 0.00488281s0.00390625 0.00292969 0.00488281 0.00488281l101.897 101.897
c2.85938 2.8584 7.16113 3.71582 10.8984 2.16699zM491.999 -44v248.857l-38.165 -38.1592l9.5459 -9.5459c3.90527 -3.9043 3.90527 -10.2363 0 -14.1416c-1.95312 -1.95215 -4.51172 -2.92871 -7.07031 -2.92871c-2.55957 0 -5.11816 0.975586 -7.07129 2.92871
l-9.54492 9.54492l-25.4561 -25.4561l9.5459 -9.5459c3.90527 -3.90625 3.90527 -10.2383 0 -14.1426c-1.95312 -1.95312 -4.51172 -2.92969 -7.07129 -2.92969c-2.55859 0 -5.11816 0.976562 -7.07031 2.92969l-9.5459 9.5459l-25.4551 -25.4551l9.5459 -9.5459
c3.9043 -3.90625 3.9043 -10.2383 0 -14.1436c-1.95312 -1.95312 -4.5127 -2.92871 -7.07129 -2.92871s-5.11816 0.975586 -7.07129 2.92871l-9.5459 9.5459l-25.4561 -25.4561l9.5459 -9.5459c3.90527 -3.9043 3.90527 -10.2363 0 -14.1416
c-1.95215 -1.95215 -4.51172 -2.92871 -7.07031 -2.92871c-2.55957 0 -5.11816 0.975586 -7.07129 2.92871l-9.54492 9.54492l-25.4561 -25.4561l9.5459 -9.5459c3.90527 -3.90625 3.90527 -10.2383 0 -14.1426c-1.95312 -1.95312 -4.51172 -2.92969 -7.07031 -2.92969
c-2.55957 0 -5.11816 0.976562 -7.07129 2.92969l-9.5459 9.5459l-38.1611 -38.1611h248.856zM455.826 117.527c3.7373 -1.54785 6.17285 -5.19434 6.17285 -9.23828v-112.289c0 -5.52344 -4.47754 -10 -10 -10h-112.289c-4.04492 0 -7.69043 2.43555 -9.23828 6.17285
s-0.691406 8.03809 2.16797 10.8984l112.288 112.289c2.85938 2.85938 7.16113 3.71582 10.8984 2.16699zM441.999 6v78.1465l-78.1455 -78.1465h78.1455zM463.06 298.739c2.75293 -2.75293 3.65625 -6.85352 2.31738 -10.5098l-25.0059 -68.2812
c-0.499023 -1.36426 -1.29102 -2.60352 -2.31836 -3.63184l-76.6855 -76.6855c-3.90723 -3.90527 -10.2373 -3.90527 -14.1426 0c-3.90527 3.9043 -3.90527 10.2363 0 14.1416l69.8145 69.8164l-29.1328 29.1328l-182.707 -182.707l29.1338 -29.1328l63.8916 63.8916
c3.9082 3.90527 10.2373 3.90527 14.1426 0c3.90527 -3.9043 3.90527 -10.2363 0 -14.1416l-84.332 -84.332c-7.91406 -7.91406 -18.3125 -11.8721 -28.709 -11.8721c-10.3975 -0.000976562 -20.793 3.95703 -28.709 11.873c-15.8291 15.8301 -15.8291 41.5879 0 57.418
l8.95898 8.95898c-0.366211 1.04102 -0.576172 2.15527 -0.576172 3.32227v115.999c0 5.52344 4.47754 10 10 10h79.999c5.52246 0 10 -4.47656 10 -10c0 -5.52246 -4.47754 -9.99902 -10 -9.99902h-69.999v-89.9004l148.293 148.295l-118.293 118.295l-146.761 -146.761
c-1.87598 -1.875 -4.41895 -2.92969 -7.07129 -2.92969h-35.168v-252.999h148.985c5.52246 0 10 -4.47656 10 -10s-4.47754 -10 -10 -10h-158.985c-5.52246 0 -10 4.47656 -10 10v262.999h-10c-4.04492 0 -7.69141 2.43652 -9.23926 6.1748
c-1.54688 3.73633 -0.69043 8.03809 2.16797 10.8975l219 219c3.90723 3.9043 10.2373 3.9043 14.1426 0l114 -114c3.90527 -3.90625 3.90527 -10.2383 0 -14.1426c-3.90723 -3.90527 -10.2373 -3.90527 -14.1426 0l-106.929 106.929l-194.857 -194.858h36.8828
l150.903 150.903c1.875 1.875 4.41895 2.92871 7.07129 2.92871c2.65137 0 5.19434 -1.05371 7.07031 -2.92871l125.366 -125.367l19.1992 19.1992c1.02832 1.02832 2.26758 1.81934 3.63281 2.31934l68.2803 25.0049c3.65918 1.33887 7.75684 0.432617 10.5107 -2.31934z
M220.191 26.7412l-29.1328 29.1328l-6.29785 -6.29785c-3.89258 -3.8916 -6.0332 -9.06543 -6.0332 -14.5674s2.14258 -10.6748 6.03418 -14.5664c3.88965 -3.89062 9.0625 -6.0332 14.5654 -6.0332c5.50391 0 10.6758 2.14258 14.5664 6.0332zM427.085 241.829
l12.1006 33.0371l-33.0381 -12.0986zM336.688 129.1c1.86133 -1.87012 2.93066 -4.44043 2.93066 -7.07031s-1.07129 -5.20996 -2.93066 -7.08008c-1.85938 -1.85938 -4.43945 -2.91992 -7.06934 -2.91992c-2.63965 0 -5.20996 1.06055 -7.06934 2.91992
c-1.86133 1.87012 -2.93066 4.44043 -2.93066 7.08008c0 2.62988 1.07031 5.2002 2.93066 7.07031c1.85938 1.86035 4.43945 2.92969 7.06934 2.92969s5.20996 -1.06934 7.06934 -2.92969zM229 296.999c20.9521 0 37.999 -17.0469 37.999 -38
c0 -20.9521 -17.0469 -38 -37.999 -38c-20.9531 0 -38 17.0479 -38 38c0 20.9531 17.0469 38 38 38zM229 240.999c9.9248 0 18 8.0752 18 18c0 9.92578 -8.0752 18 -18 18c-9.92578 0 -18 -8.07422 -18 -18s8.07422 -18 18 -18z" />
    <glyph glyph-name="uniF124" unicode="&#xf124;" 
d="M270.635 226.041c5.62012 5.62109 14.7402 5.62109 20.2549 0c34.3594 -34.3594 34.3594 -90.3525 0 -124.712l-121.955 -121.955c-17.1797 -17.1797 -39.7676 -25.7705 -62.3564 -25.7705c-22.5879 0 -45.1768 8.59082 -62.3564 25.7705l-18.3457 18.3457
c-16.7559 16.6494 -25.876 38.8135 -25.876 62.3564s9.22656 45.707 25.876 62.3564l121.955 121.955c5.62012 5.62012 14.6348 5.62012 20.2549 0c5.62109 -5.62012 5.62109 -14.6348 0 -20.2549l-121.955 -121.955c-23.2246 -23.2246 -23.2246 -60.9785 0 -84.2021
l18.3467 -18.3467c23.2246 -23.2246 60.9775 -23.2246 84.2021 0l121.955 121.955c23.2246 23.2246 23.2246 60.9775 0 84.2021c-5.62109 5.62109 -5.62109 14.6348 0 20.2549zM486.23 386.28c16.6494 -16.6494 25.7695 -38.8135 25.7695 -62.3564
s-9.22656 -45.707 -25.876 -62.3564l-121.955 -121.955c-2.75684 -2.86328 -6.46875 -4.24219 -10.0742 -4.24219s-7.31738 1.48535 -10.0752 4.24219c-5.62012 5.62012 -5.62012 14.6348 0 20.2549l121.956 121.955c23.2236 23.2246 23.2236 60.9785 0 84.2021
l-18.3467 18.3467c-23.2246 23.2246 -60.9775 23.2246 -84.2021 0l-121.955 -121.955c-23.2246 -23.2246 -23.2246 -60.9775 0 -84.2021c5.62012 -5.62109 5.62012 -14.6348 0 -20.2549c-5.62109 -5.62109 -14.6348 -5.62109 -20.2559 0
c-34.3594 34.3594 -34.3594 90.3525 0 124.712l121.956 121.955c34.3594 34.3604 90.3525 34.3604 124.712 0z" />
    <glyph glyph-name="uniF1BA" unicode="&#xf1ba;" 
d="M274.286 356.571v-156.088l92.0146 -24.6484l-18.2861 -31.6719l-110.3 29.5508v0v182.857h36.5713zM256 448c141.385 0 256 -114.615 256 -256s-114.615 -256 -256 -256s-256 114.615 -256 256s114.615 256 256 256zM256 -27.4287
c121.197 0 219.429 98.2305 219.429 219.429s-98.2314 219.429 -219.429 219.429s-219.429 -98.2305 -219.429 -219.429s98.2314 -219.429 219.429 -219.429z" />
    <glyph glyph-name="uniF147" unicode="&#xf147;" 
d="M257.669 335.795c36.083 0 65.4531 -29.3691 65.4531 -65.4521c0 -36.084 -29.3701 -65.4531 -65.4531 -65.4531s-65.4531 29.3691 -65.4531 65.4531c0 36.083 29.3701 65.4521 65.4531 65.4521zM257.669 223.591c25.7793 0 46.752 20.9727 46.752 46.752
c0 25.7783 -20.9727 46.752 -46.752 46.752s-46.752 -20.9736 -46.752 -46.752c0 -25.7793 20.9727 -46.752 46.752 -46.752zM382.806 395.479c62.6758 -62.666 70.4648 -180.574 16.6533 -252.302l-143.445 -207.177l-143.659 207.467
c-53.5967 71.4375 -45.8076 189.346 16.8682 252.012c33.8672 33.8672 78.8896 52.5215 126.791 52.5215c47.8936 0 92.9248 -18.6543 126.792 -52.5215zM384.292 154.107c48.8281 65.1064 41.8623 171.589 -14.708 228.149c-30.3418 30.333 -70.6699 47.042 -113.57 47.042
c-42.8994 0 -83.2275 -16.709 -113.561 -47.042c-56.5693 -56.5605 -63.5361 -163.043 -14.9229 -227.859l128.483 -185.54z" />
    <glyph glyph-name="uniF13A" unicode="&#xf13a;" 
d="M512 208.128v-32.2549h-450.259l36.9775 -36.9785l-22.8066 -22.8066l-75.9121 75.9131l75.9121 75.9111l22.8066 -22.8066l-36.9775 -36.9775h450.259z" />
    <glyph glyph-name="uniF116" unicode="&#xf116;" 
d="M512 416.33l-224.331 -224.329l224.331 -224.331l-31.6699 -31.6699l-224.331 224.331l-224.329 -224.331l-31.6699 31.6699l224.329 224.331l-224.329 224.329l31.6699 31.6699l224.329 -224.329l224.331 224.329z" />
    <glyph glyph-name="uniF129" unicode="&#xf129;" 
d="M405.688 119.069c50.499 0 91.6416 -41.0361 91.6416 -91.5342c0 -50.499 -41.0371 -91.5352 -91.5352 -91.5352s-91.5352 41.1426 -91.5352 91.5352c0 10.6309 1.91406 20.9434 5.31641 30.5117l-140.545 78.5645c-16.7979 -21.9004 -43.1631 -36.04 -72.7178 -36.04
c-50.499 0 -91.6416 41.0371 -91.6416 91.5352s41.1426 91.5352 91.5352 91.5352c29.5547 0 55.9199 -14.0332 72.6113 -35.9336l140.438 78.458c-3.40234 9.46191 -5.20898 19.668 -5.20898 30.2988c0 50.499 41.0361 91.5352 91.5342 91.5352
c50.499 0 91.5352 -41.0361 91.5352 -91.5352c0 -50.498 -41.1426 -91.5342 -91.5352 -91.5342c-29.5547 0 -55.9199 14.1387 -72.6113 35.9336l-140.545 -78.459c3.40234 -9.56836 5.20996 -19.668 5.20996 -30.2988c0 -10.5254 -1.80762 -20.7314 -5.10352 -30.1924
l140.651 -78.5654c16.7979 21.6875 43.0566 35.7207 72.5049 35.7207zM405.688 419.189c-34.5518 0 -62.8301 -28.1729 -62.8301 -62.8311c0 -34.6572 28.1729 -62.8301 62.8301 -62.8301c34.6582 0 62.8311 28.1729 62.8311 62.8301
c0 34.6582 -28.1729 62.8311 -62.8311 62.8311zM106.312 129.275c34.5518 0 62.8301 28.1729 62.8301 62.8311c0 34.6572 -28.1729 62.8301 -62.8301 62.8301c-34.6582 0 -62.8311 -28.1729 -62.8311 -62.8301c0 -34.6582 28.1729 -62.8311 62.8311 -62.8311z
M405.688 -35.1895c34.6582 0 62.8311 28.1729 62.8311 62.8311c0 34.6572 -28.1729 62.8301 -62.8311 62.8301c-34.6572 0 -62.8301 -28.1729 -62.8301 -62.8301c0 -34.6582 28.1729 -62.8311 62.8301 -62.8311z" />
    <glyph glyph-name="uniF19B" unicode="&#xf19b;" 
d="M255.992 448c103.932 0 188.492 -84.5605 188.503 -188.498c0 -27.1104 -5.54395 -52.9951 -16.4844 -76.9414c-47.1426 -103.136 -137.499 -212.009 -164.064 -242.914c-1.99121 -2.31055 -4.89453 -3.6416 -7.94922 -3.6416s-5.95703 1.33105 -7.94824 3.6416
c-26.5771 30.9102 -116.933 139.789 -164.06 242.914c-10.9355 23.9463 -16.4844 49.8311 -16.4844 76.9414c0 103.938 84.5605 188.498 188.487 188.498zM255.992 161.596c53.9912 0 97.917 43.9258 97.9111 97.9121c0 53.9912 -43.9248 97.916 -97.9111 97.916
s-97.9111 -43.9248 -97.9111 -97.916c0 -53.9863 43.9248 -97.9121 97.9111 -97.9121z" />
    <glyph glyph-name="uniF191" unicode="&#xf191;" 
d="M512 440.728v-257.153c0 -160.224 -58.5459 -240.346 -175.747 -240.346c-12.9326 0 -32.7451 0.848633 -59.417 2.54688v99.5439c81.0156 0 121.446 37.4707 121.446 112.367l-1.32812 45.2217h-83.9326v237.819h198.979v0zM25.8652 202.974v0l-0.0429688 237.798h199
v-257.132c0 -160.224 -58.5898 -240.346 -175.747 -240.346c-9.4707 0 -25.8438 0.848633 -49.0752 2.50391v99.543c74.0918 4.28906 111.126 41.7598 111.126 112.39l-1.28418 45.2432h-83.9766z" />
    <glyph glyph-name="uniF16C" unicode="&#xf16c;" 
d="M506.555 239.936c5.92871 -4.34082 7.2168 -12.6641 2.87402 -18.5918c-2.60547 -3.55957 -6.64746 -5.44434 -10.7441 -5.44434c-2.72754 0 -5.47949 0.834961 -7.84766 2.56934l-234.837 171.943l-234.837 -171.944c-5.92676 -4.33887 -14.252 -3.05273 -18.5928 2.875
c-4.3418 5.92871 -3.05371 14.252 2.875 18.5928l242.697 177.697c4.67871 3.42578 11.0361 3.42578 15.7168 0zM442.246 215.457c7.34668 0 13.3027 -5.95605 13.3037 -13.3037v-225.054c0 -7.34668 -5.95605 -13.3027 -13.3027 -13.3027h-133.029
c-7 0 -12.7266 5.41211 -13.251 12.2793c-0.0322266 0.306641 -0.0517578 0.640625 -0.0517578 1.02344v128.891c0 22.0078 -17.9053 39.9141 -39.9141 39.9141s-39.9141 -17.9053 -39.9141 -39.9141v-128.891c0 -0.384766 -0.0195312 -0.724609 -0.0517578 -1.03516
c-0.530273 -6.8623 -6.25488 -12.2676 -13.251 -12.2676h-133.029c-7.3457 0 -13.3027 5.95605 -13.3027 13.3027v225.054c0 7.34668 5.95703 13.3027 13.3027 13.3027s13.3027 -5.95605 13.3027 -13.3027v-211.749h106.424v115.587
c0 36.6777 29.8418 66.5195 66.5195 66.5195s66.5205 -29.8398 66.5205 -66.5195v-115.586h106.422v211.749c0 7.34668 5.95703 13.3027 13.3027 13.3027z" />
    <glyph glyph-name="uniF112" unicode="&#xf112;" 
d="M371.578 332.422l140.422 -140.421l-140.422 -140.423l-22.8066 22.8076l101.487 101.486h-450.259v32.2549h450.259l-101.487 101.487z" />
    <glyph glyph-name="uniF179" unicode="&#xf179;" 
d="M503.467 72.5332c4.71289 0 8.5332 -3.82031 8.5332 -8.5332v-17.0664c-0.0273438 -23.5527 -19.1143 -42.6396 -42.667 -42.667h-426.666c-23.5527 0.0273438 -42.6396 19.1143 -42.667 42.667v17.0664c0 4.71289 3.82031 8.5332 8.5332 8.5332h8.5332v281.601
c0 14.1387 11.4619 25.5996 25.6006 25.5996h435.199c9.42676 0 17.0674 -7.64062 17.0674 -17.0664v-290.134h8.5332zM34.1338 354.134v-281.601h443.732v290.134h-435.199c-4.71289 0 -8.5332 -3.82129 -8.5332 -8.5332zM298.667 55.4668h-85.334v-8.5332h85.334v8.5332z
M494.934 46.9336v8.5332h-179.2v-17.0664c0 -4.71289 -3.82129 -8.53418 -8.5332 -8.53418h-102.4c-4.71191 0 -8.5332 3.82129 -8.5332 8.53418v17.0664h-179.2v-8.5332c0 -14.1387 11.4619 -25.6006 25.6006 -25.6006h426.666c14.1387 0 25.6006 11.4619 25.6006 25.6006z
M42.667 354.134h426.666v-273.067h-426.666v273.067zM452.267 98.1338v238.933h-392.533v-238.933h392.533z" />
    <glyph glyph-name="uniF106" unicode="&#xf106;" 
d="M0 21.333v56.8896h512v-56.8896h-512zM0 163.556v56.8887h512v-56.8887h-512zM0 362.667h512v-56.8896h-512v56.8896z" />
    <glyph glyph-name="uniF17B" unicode="&#xf17b;" 
d="M512 0h-192v192l192 192v-384zM192 0h-192v192l192 192v-384z" />
    <glyph glyph-name="uniF110" unicode="&#xf110;" 
d="M48.8184 169.377c0 108.75 84.1426 198.053 191.306 206.388v13.8916h-38.499c-9.12891 0 -16.2734 7.14355 -16.2734 16.2725s7.14453 16.2725 16.2734 16.2725h107.162c9.12891 0 16.2734 -7.14355 16.2734 -16.2725s-7.14453 -16.2725 -16.2734 -16.2725h-36.1172
v-13.8916c39.6895 -3.17578 75.8076 -17.0674 105.972 -39.293l17.8604 17.8604l-7.54102 7.54102c-6.34961 6.35059 -6.34961 16.6699 0 23.0195c6.35059 6.35059 16.6699 6.35059 23.0205 0l37.7051 -37.7051c6.35059 -6.35059 6.35059 -16.6699 0 -23.0205
c-3.1748 -3.1748 -7.14355 -4.7627 -11.5098 -4.7627s-8.33496 1.58789 -11.5098 4.7627l-7.54102 7.54199l-16.2734 -16.2734c37.3086 -37.3086 60.3291 -89.3018 60.3291 -146.059c0 -114.308 -92.875 -207.182 -207.182 -207.182s-207.182 92.874 -207.182 207.182z
M256 344.013c-96.4463 0 -175.032 -78.1895 -175.032 -175.033c0 -96.4463 78.5859 -175.032 175.032 -175.032s175.032 78.5859 175.032 175.032c0 96.4473 -78.5859 175.033 -175.032 175.033zM256 155.882c-9.12891 0 -16.2725 7.14453 -16.2725 15.876v100.416
c0 9.12891 7.14355 16.2725 16.2725 16.2725s16.2725 -7.14355 16.2725 -16.2725v-83.7461h53.1846c9.12891 0 16.2734 -7.14355 16.2734 -16.2725s-7.14453 -16.2734 -16.2734 -16.2734h-69.457z" />
    <glyph glyph-name="uniF174" unicode="&#xf174;" 
d="M469.333 341.333c23.5322 0 42.667 -19.1348 42.668 -42.666v-277.333c0 -23.5322 -19.1357 -42.667 -42.667 -42.667h-426.667c-23.5322 0 -42.667 19.1357 -42.667 42.667v277.333c0 23.5312 19.1348 42.666 42.667 42.667h106.666v21.333
c0 23.5322 19.1357 42.667 42.667 42.667h128c23.5322 0 42.667 -19.1357 42.667 -42.667v-21.334h106.666zM170.667 362.667v-21.333h170.666v21.333c0 11.7598 -9.57324 21.333 -21.333 21.333h-128c-11.7598 0 -21.333 -9.57324 -21.333 -21.333zM490.667 21.333
h0.000976562v155.267c-6.2998 -3.6748 -13.5273 -5.93359 -21.333 -5.93359h-170.667v-32c0 -5.89648 -4.77051 -10.667 -10.667 -10.667h-64c-5.89551 0 -10.667 4.77051 -10.667 10.667v32h-170.667c-7.80566 0 -15.0322 2.25977 -21.333 5.93359v-155.267
c0 -11.7598 9.57324 -21.333 21.333 -21.333h426.667c11.7598 0 21.333 9.57324 21.333 21.333zM234.667 149.333h42.667v42.667h-42.667v-42.667zM490.667 213.333v85.333c0 11.7598 -9.57324 21.333 -21.333 21.333h-426.667c-11.7598 0 -21.333 -9.57324 -21.333 -21.333
v-85.333c0 -11.7598 9.57324 -21.333 21.333 -21.333h170.666v10.667c0 5.89648 4.77051 10.667 10.667 10.667h64c5.89648 0 10.667 -4.77051 10.667 -10.667v-10.667h170.667c11.7598 0 21.333 9.57324 21.333 21.333z" />
    <glyph glyph-name="uniF13C" unicode="&#xf13c;" 
d="M319.958 448l123.775 -123.775v-388.225h-375.467v512h251.691zM329.955 389.731v-55.5088h55.5088zM102.4 -29.8662h307.199v329.955h-113.777v113.777h-193.422v-443.732zM302.768 105.333l39.4912 114.967l32.2832 -11.0889l-58.6758 -170.811h-26.7568
l-33.1094 99.2734l-33.1094 -99.2734h-26.7568l-58.6758 170.811l32.2832 11.0889l39.4912 -114.967l33.3301 99.9404h26.875z" />
    <glyph glyph-name="uniF1C9" unicode="&#xf1c9;" 
d="M483.667 309.173c18.5352 -35.9443 28.3311 -76.4609 28.3311 -117.172c0 -141.158 -114.841 -255.999 -255.999 -255.999s-255.999 114.841 -255.999 255.999s114.841 255.999 255.999 255.999c5.75293 0 10.4189 -4.66602 10.4189 -10.4189
s-4.66602 -10.4189 -10.4189 -10.4189c-129.667 0 -235.161 -105.492 -235.161 -235.161s105.494 -235.163 235.161 -235.163c129.668 0 235.161 105.494 235.161 235.161c0 37.9395 -8.75195 74.1475 -26.0127 107.622c-16.4746 31.9473 -40.498 60.1582 -69.4746 81.5869
c-4.62695 3.42285 -5.60547 9.94727 -2.18359 14.5732c3.42285 4.62598 9.94531 5.60352 14.5732 2.18262c31.5312 -23.3174 57.6768 -54.0215 75.6045 -88.791zM190.494 310.869c3.25781 1.85254 7.25488 1.81055 10.4785 -0.104492l184.46 -109.809
c3.09961 -1.8457 5.02344 -5.16309 5.08789 -8.76953c0.0634766 -3.60645 -1.74219 -6.98926 -4.77441 -8.94336l-127.573 -82.1943c-4.83789 -3.11816 -11.2832 -1.72266 -14.4023 3.11523c-3.11719 4.83691 -1.7207 11.2842 3.11523 14.4014l113.437 73.085
l-154.26 91.832v-210.325c0 -5.75488 -4.66602 -10.4189 -10.4199 -10.4189c-5.75293 0 -10.4189 4.66406 -10.4189 10.4189v228.654c0 3.74512 2.0127 7.2041 5.27051 9.05762z" />
    <glyph glyph-name="uniF14D" unicode="&#xf14d;" 
d="M405.034 238.194c59.5547 -3.42969 106.961 -52.9609 106.961 -113.359c0 -62.6094 -50.9375 -113.539 -113.547 -113.539c-61.0078 0 -108.75 47.5088 -113.516 112.961c-8.13281 111.469 48.0703 202.453 98.6719 246.484
c3.04688 2.65625 7.60938 2.60938 10.625 -0.100586c4.51562 -4.09473 7.60156 -7.23438 14.3594 -14.126c5.14062 -5.22656 12.4688 -12.6953 24.3047 -24.5312c2.72656 -2.72656 3.125 -7.01562 0.929688 -10.1953c-29.0312 -42.1406 -29.8203 -72.4453 -28.7891 -83.5938
zM398.448 27.2959c53.7891 0 97.5469 43.7578 97.5469 97.54c0 53.7881 -43.7578 97.5459 -97.5469 97.5459c-2.96875 0 -5.80469 1.77344 -7.1875 4.40625c-2.91406 5.54785 -9.5625 44.2344 25.6797 98.5312c-9.21875 9.25098 -15.3125 15.4541 -19.7656 19.9854
c-3.69531 3.76562 -6.20312 6.31152 -8.39844 8.47559c-22.5156 -21.5625 -97.0391 -102.992 -87.8906 -228.359v-0.0078125c4.14844 -56.8516 45.1719 -98.1172 97.5625 -98.1172zM120.909 238.194c59.5625 -3.41406 106.969 -52.9531 106.969 -113.358
c0 -62.6104 -50.9375 -113.54 -113.547 -113.54c-61.0078 0 -108.758 47.5088 -113.539 112.953v0.0078125c-8.11719 111.492 48.0938 202.461 98.6953 246.492c3.04688 2.64062 7.60938 2.60156 10.625 -0.108398c4.51562 -4.10156 7.60938 -7.25098 14.3906 -14.1572
c5.13281 -5.22656 12.4531 -12.6875 24.2656 -24.5c2.72656 -2.72656 3.11719 -7.01562 0.929688 -10.1953c-29.0625 -42.1953 -29.8281 -72.4766 -28.7891 -83.5938zM114.331 27.2959c53.7891 0 97.5469 43.7578 97.5469 97.5391
c0 53.7891 -43.7578 97.5469 -97.5469 97.5469c-2.96875 0 -5.8125 1.78125 -7.19531 4.41406c-2.91406 5.54004 -9.5625 44.2188 25.6797 98.5234c-9.20312 9.23438 -15.2891 15.4297 -19.7344 19.9609c-3.70312 3.77344 -6.21875 6.33594 -8.42188 8.5
c-22.5156 -21.5547 -97.0391 -102.969 -87.9141 -228.367v0.0078125c4.15625 -56.8594 45.2031 -98.125 97.5859 -98.125z" />
    <glyph glyph-name="uniF190" unicode="&#xf190;" 
d="M161.106 416.506c186.819 -84.793 19.877 -379.031 -93.249 -454.642c-19.3916 -12.96 -37.4229 18.291 -18.1953 31.1357c51.4482 34.3975 90.1514 92.4492 117.138 147.068c16.1025 32.5938 32.5723 72.1387 38.1377 111.588
c-26.9082 -27.6045 -63.6816 -45.1211 -103.645 -37.7617c-46.1777 8.49902 -89.4053 42.6992 -99.3369 89.9609c-17.6904 84.1963 88.5762 144.683 159.15 112.65zM198.251 302.071c0.274414 0.469727 0.610352 0.795898 0.907227 1.21484
c-0.0429688 8.04688 -0.178711 16.0791 -0.675781 24.1006c-24.5488 64.3428 -121.845 90.3447 -155.682 17.7305c-17.8311 -38.2617 10.8633 -80.8701 49.6553 -92.0938c45.3984 -13.1377 83.0576 9.9082 105.795 49.0479zM427.952 416.506
c186.829 -84.793 19.8809 -379.031 -93.248 -454.642c-19.3887 -12.96 -37.4248 18.291 -18.1982 31.1357c51.458 34.3975 90.1553 92.4492 117.142 147.068c16.1104 32.5938 32.5693 72.1387 38.1357 111.588c-26.9043 -27.6045 -63.6768 -45.1211 -103.641 -37.7617
c-46.1787 8.49902 -89.4141 42.6992 -99.3398 89.9609c-17.6875 84.1963 88.5762 144.683 159.149 112.65zM465.105 302.071c0.128906 0.232422 0.301758 0.381836 0.445312 0.59375c-0.133789 11.3301 -1.08691 22.2412 -3.92578 33.0029
c-29.3613 58.1367 -119.632 78.8555 -151.97 9.44922c-17.834 -38.2617 10.8633 -80.8701 49.6533 -92.0938c45.3975 -13.1377 83.0596 9.9082 105.797 49.0479z" />
    <glyph glyph-name="uniF145" unicode="&#xf145;" 
d="M486.314 332.8c14.1572 0 25.6855 -11.5283 25.6855 -25.6855v-307.029c0 -14.1562 -11.5283 -25.6846 -25.6855 -25.6846h-460.629c-14.1572 0 -25.6855 11.5283 -25.6855 25.6846v307.029c0 14.1572 11.5283 25.6855 25.6855 25.6855h16.9814v25.6006h85.333v-25.6006
h34.1338v49.4424c0 15.0869 12.2705 27.3574 27.3574 27.3574h133.018c15.0869 0 27.3574 -12.2705 27.3574 -27.3574v-49.4424h34.1338v25.6006h85.333v-25.6006h16.9814zM401.066 341.333v-8.5332h51.2002v8.5332h-51.2002zM179.2 382.242v-49.4424h153.6v49.4424
c0 5.6748 -4.61621 10.291 -10.291 10.291h-133.018c-5.6748 0 -10.291 -4.61621 -10.291 -10.291zM162.134 315.733h-34.1338h-42.667v-324.267h341.334v324.267h-42.667h-34.1338h-187.732zM59.7334 341.333v-8.5332h51.2002v8.5332h-51.2002zM17.0664 0.0849609
c0 -4.75293 3.86621 -8.61816 8.61914 -8.61816h42.5811v324.267h-25.5996h-16.9814c-4.75293 0 -8.61914 -3.86523 -8.61914 -8.61914v-307.029zM494.934 0.0849609v307.029c0 4.75391 -3.86621 8.61914 -8.61914 8.61914h-16.9814h-25.5996v-324.267h42.5811
c4.75293 0 8.61914 3.86523 8.61914 8.61816z" />
    <glyph glyph-name="uniF100" unicode="&#xf100;" 
d="M255.999 379.104c22.4971 0 40.8008 -18.3037 40.8008 -40.8008c0 -22.4961 -18.3037 -40.7988 -40.8008 -40.7988c-22.4961 0 -40.7988 18.3027 -40.7988 40.7988c0 22.498 18.3027 40.8008 40.7988 40.8008zM255.999 313.604
c13.6201 0 24.7002 11.0801 24.7002 24.6982c0 13.6201 -11.0811 24.7002 -24.7002 24.7002c-13.6172 0 -24.6982 -11.0811 -24.6982 -24.7002c0 -13.6182 11.0811 -24.6982 24.6982 -24.6982zM503.928 11.4531c4.44629 0 8.0498 -3.60352 8.0498 -8.0498v-46.8828
c0 -4.44629 -3.60352 -8.0498 -8.0498 -8.0498h-495.854c-4.44629 0 -8.0498 3.60352 -8.0498 8.0498v46.8828c0 4.44629 3.60352 8.0498 8.0498 8.0498h4.23242c3.18164 16.0938 15.707 28.8613 31.6699 32.4053v34.4639c0 4.44727 3.60449 8.05078 8.05078 8.05078
h4.24316v133.318h-4.24316c-4.44629 0 -8.05078 3.60352 -8.05078 8.0498v22.7393h-24.7666c-8.59375 0 -15.7842 5.30664 -18.3164 13.5195c-2.53027 8.21289 0.422852 16.6475 7.52539 21.4873l197.615 134.638c14.792 10.0771 32.0684 15.4043 49.9658 15.4043
c17.8984 0 35.1758 -5.32715 49.9668 -15.4043l197.617 -134.637c7.10156 -4.83984 10.0557 -13.2744 7.52441 -21.4873c-2.53125 -8.21387 -9.72168 -13.5195 -18.3154 -13.5195h-24.7666v-22.7393c0 -4.44629 -3.60449 -8.0498 -8.0498 -8.0498h-4.24414v-133.318h4.24414
c4.44531 0 8.0498 -3.60352 8.0498 -8.05078v-34.4648c15.9619 -3.54395 28.4883 -16.3115 31.6699 -32.4053h4.23242zM52.0273 266.579h76.0791h34.542h76.0811h34.5439h76.0801h34.542h76.0811h32.8154c1.96777 0 2.68066 1.35645 2.92969 2.16406
c0.249023 0.808594 0.424805 2.3291 -1.2041 3.43848l-197.615 134.639c-12.1064 8.24805 -26.251 12.6084 -40.9004 12.6084c-14.6514 0 -28.7939 -4.35938 -40.9014 -12.6084l-197.617 -134.638c-1.62891 -1.10938 -1.45312 -2.62988 -1.2041 -3.43848
c0.249023 -0.807617 0.960938 -2.16406 2.93066 -2.16406h32.8174v-0.000976562zM396.187 235.792h51.4941h4.24316v14.6895h-59.9814v-14.6895h4.24414zM439.631 219.692h-35.3955v-133.318h35.3955v133.318zM391.943 70.2744v-25.4219h59.9814v25.4219h-4.24414h-51.4932
h-4.24414zM349.352 86.374c4.44531 0 8.0498 -3.60449 8.0498 -8.05078v-33.4717h18.4434v33.4717c0 4.44727 3.60352 8.05078 8.0498 8.05078h4.24414v133.318h-4.24414c-4.44629 0 -8.0498 3.60352 -8.0498 8.0498v22.7393h-18.4434v-22.7393
c0 -4.44629 -3.60449 -8.0498 -8.0498 -8.0498h-4.24414v-133.318h4.24414zM285.563 235.792h51.4941h4.24316v14.6895h-59.9814v-14.6895h4.24414zM329.009 219.692h-35.3945v-133.318h35.3945v133.318zM281.321 70.2744v-25.4219h59.9814v25.4219h-4.24414h-51.4932
h-4.24414zM238.729 86.374c4.44531 0 8.04883 -3.60449 8.0498 -8.05078v-33.4717h18.4434v33.4717c0 4.44727 3.60352 8.05078 8.0498 8.05078h4.24414v133.318h-4.24414c-4.44629 0 -8.0498 3.60352 -8.0498 8.0498v22.7393h-18.4434v-22.7393
c0 -4.44629 -3.60352 -8.0498 -8.0498 -8.0498h-4.24414v-133.318h4.24414zM174.941 235.792h51.4951h4.24316v14.6895h-59.9824v-14.6895h4.24414zM218.387 219.692h-35.3965v-133.318h35.3965v133.318zM170.698 70.2744v-25.4219h59.9824v25.4219h-4.24414h-51.4941
h-4.24414zM128.106 86.374c4.44629 0 8.0498 -3.60449 8.0498 -8.05078v-33.4717h18.4434v33.4717c0 4.44727 3.60449 8.05078 8.0498 8.05078h4.24414v133.318h-4.24414c-4.44531 0 -8.0498 3.60352 -8.0498 8.0498v22.7393h-18.4434v-22.7393
c0 -4.44629 -3.60352 -8.0498 -8.0498 -8.0498h-4.24414v-133.318h4.24414zM64.3193 235.792h51.4932h4.24316v14.6895h-59.9805v-14.6895h4.24414zM107.763 219.692h-35.3936v-133.318h35.3936v133.318zM60.0762 70.2744v-25.4219h59.9805v25.4219h-4.24414h-51.4922
h-4.24414zM52.9639 28.7529c-11.165 0 -20.668 -7.25684 -24.0391 -17.2998h454.15c-3.37207 10.043 -12.874 17.2998 -24.0391 17.2998h-75.1426h-34.542h-76.0801h-34.542h-76.0811h-34.542h-75.1426zM495.879 -35.4287v30.7812h-3.44238h-472.873h-3.44141v-30.7812
h479.756h0.000976562z" />
    <glyph glyph-name="uniF12B" unicode="&#xf12b;" 
d="M504.751 279.223c9.02734 -9.02637 9.02734 -23.5117 0.105469 -32.3281l-25.6104 -25.6104c-4.30371 -4.30371 -10.0762 -6.71777 -16.1641 -6.71777s-11.8604 2.41406 -16.1641 6.71777l-25.6104 25.6104c-8.92188 8.92188 -8.92188 23.5117 0 32.4326l1.57422 1.5752
c-59.7227 36.9463 -136.975 35.2666 -195.123 -4.93359c3.14941 -8.18652 1.46973 -17.8438 -5.14258 -24.4561l-25.6104 -25.6104c-4.30371 -4.30371 -10.0762 -6.71777 -16.1641 -6.71777c-2.93945 0 -5.66797 0.525391 -8.29199 1.5752
c-40.2002 -58.1484 -41.7744 -135.4 -4.93359 -195.123l0.735352 0.734375c4.30273 4.30371 10.0762 6.71777 16.1641 6.71777c6.08691 0 11.8604 -2.41406 16.1641 -6.71777l25.6104 -25.6104c8.9209 -8.92188 8.9209 -23.5107 0 -32.4326l-25.6104 -25.6104
c-4.30371 -4.30371 -10.0771 -6.71777 -16.1641 -6.71777c-6.08789 0 -11.8613 2.41406 -16.1641 6.71777l-25.6104 25.6104c-8.92188 8.92188 -8.92188 23.5107 0 32.4326l4.30273 4.30371c-22.4619 33.6924 -34.3223 72.8428 -34.4268 113.883
c-0.105469 25.6104 4.5127 50.4863 13.3301 73.7871l-44.7139 -44.7129c7.55762 -15.7441 4.72363 -35.2666 -8.29199 -48.2822c-7.97656 -8.08203 -18.6826 -12.4902 -30.0186 -12.4902s-22.042 4.5127 -30.0186 12.4902c-16.584 16.4785 -16.584 43.4541 0 60.0381
c7.97656 8.08203 18.6826 12.4902 30.0186 12.4902c6.40234 0 12.5957 -1.36523 18.2627 -4.09375l80.5059 80.5049l-2.72949 2.72949c-4.30273 4.30273 -6.71777 10.0762 -6.71777 16.1641s2.41504 11.8604 6.71777 16.1641l25.8203 25.7148
c4.30371 4.30371 10.0762 6.71777 16.1641 6.71777s11.8613 -2.41406 16.1641 -6.71777l2.72949 -2.72852l80.5049 80.5049c-2.62402 5.5625 -4.09375 11.8604 -4.09375 18.2637c0 11.335 4.51367 21.9365 12.4902 30.0186c7.97754 8.08203 18.6836 12.4902 30.0195 12.4902
s21.9365 -4.51367 30.0186 -12.4902c8.08203 -7.97754 12.4902 -18.6836 12.4902 -30.0186c0 -11.3359 -4.51367 -22.042 -12.4902 -30.0195c-7.97754 -8.08203 -18.6826 -12.4902 -30.0186 -12.4902c-6.40332 0 -12.5957 1.36426 -18.2637 4.09375l-44.7129 -44.7139
c23.1963 8.81738 47.8623 13.3301 73.3672 13.3301h0.419922c41.04 -0.104492 80.1904 -11.9648 113.883 -34.4268l3.46387 3.46387c4.30371 4.30273 10.0762 6.7168 16.1641 6.7168s11.8604 -2.41406 16.1641 -6.7168zM202.358 -15.6133l-17.9482 17.9482
l-17.9482 -17.9482l17.9482 -17.9482zM308.579 415.357c-2.62402 -2.72949 -4.09375 -6.19336 -4.09375 -9.97168s1.46973 -7.34766 4.09375 -9.97168v0v0c2.62402 -2.62402 6.19238 -4.09277 9.97168 -4.09277c3.77832 0 7.34668 1.46875 9.9707 4.09277
s4.09375 6.19336 4.09375 9.97168s-1.46973 7.34766 -4.09375 9.97168s-6.19238 4.09277 -9.9707 4.09277c-3.7793 0 -7.34766 -1.46875 -9.97168 -4.09277zM52.8945 119.682c5.5625 5.45801 5.5625 14.4844 0 19.9424c-2.62402 2.62402 -6.19336 4.09375 -9.97168 4.09375
s-7.34766 -1.46973 -9.97168 -4.09375c-5.5625 -5.45801 -5.5625 -14.3789 0 -19.9424c2.62402 -2.62402 6.19336 -4.09375 9.97168 -4.09375s7.34766 1.46973 9.97168 4.09375zM180.736 249.624l17.8438 18.0527l-8.92188 8.92188v0v0l-8.92188 8.92188l-17.9482 -17.9482z
M462.977 245.11l17.9482 17.9482l-17.9482 17.9482l-17.9482 -17.9482z" />
    <glyph glyph-name="uniF188" unicode="&#xf188;" 
d="M421.006 153.26c2.42969 -2.37305 4.6748 -5.84863 5.03613 -8.6582c1.21094 -9.47168 0.305664 -18.7217 -4.15625 -25.4375c-2.2666 -3.41309 -5.98438 -5.92969 -10.3955 -7.09766c-2.86133 -0.756836 -6.38184 -1.14648 -10.4658 -1.14648
c-23 0 -59.4414 11.5869 -89.0713 28.2705c-38.8799 -5.81543 -83.2422 -16.3594 -122.207 -29.0439c-33.748 -58.8965 -58.2461 -85.1836 -79.3477 -85.1836c-3.93848 0 -7.78223 0.925781 -11.4268 2.75195l-8.40332 4.22852
c-5.27148 3.01367 -6.04297 9.52051 -5.00684 14.6055c3.25781 15.9365 22.8906 36.0186 52.5186 53.708c3.49219 2.11328 18.3818 9.98828 19.0146 10.3223l8.6875 4.59375c8.41504 14.3965 17.6973 31.3916 27.9268 51.4111l1.26465 2.47852
c9.72363 19.0479 20.7441 40.6396 29.5391 62.0781l3.14355 7.64258c-12.2822 46.9229 -19.0596 83.1514 -12.4912 107.368c2.16113 7.72168 10.3926 12.8877 20.4932 12.8877l0.145508 -0.00292969l5.31152 -0.168945c9.05762 0.392578 14.835 -6.80859 17.7812 -13.6045
l0.941406 -2.41699c0.766602 -2.21777 1.00977 -3.0459 1.4043 -5.89844c2.86719 -20.8037 -7.96484 -82.333 -7.96484 -82.333c-0.516602 -2.2959 -1.07129 -4.5459 -1.72363 -7.10645c10.0029 -27.4111 26.0566 -52.3379 45.2881 -70.2969
c7.15039 -6.68164 16.2568 -12.2305 25.0938 -17.3291c19.7344 2.7627 38.4971 4.13574 54.085 3.96387c23.0283 -0.302734 38.1621 -3.86328 44.9854 -10.5859zM105.824 40.9756c10.375 4.69629 26.1475 19.667 49.6992 57.2295
c-3.19434 -3.03418 -6.68164 -6.30273 -8.09766 -7.45117c-22.5225 -18.4561 -37.7539 -39.2559 -41.6016 -49.7783zM239.218 348.157c-3.11328 0 -2.83008 -24.2793 -2.83008 -24.2793c0 -12.7021 1.86133 -32.1279 5.71289 -44.4521
c4.65039 8.32422 8.39941 19.5742 8.0791 35.6045c-0.320312 16.0293 -4.17871 33.127 -10.9619 33.127zM199.426 129.253c25.9521 9.97559 55.4297 18.1826 89.5342 24.9307c-2.32812 1.77441 -4.54395 3.55469 -6.63672 5.32422
c-16.7705 14.1973 -31.0371 31.916 -42.4932 52.7568c-5.75977 -14.8936 -13.4932 -33.0146 -25.7393 -56.1729c-5.02344 -9.45996 -9.94043 -18.3799 -14.665 -26.8389zM414.453 131.174c2.07715 1.29883 1.92383 7.5752 -10.1914 10.666
c-12.1152 3.08984 -15.7852 3.03613 -28.1748 3.03613c-6.76855 0 -14.3174 -0.30957 -22.5498 -0.918945c21.4258 -9.18555 36.709 -14.833 49.0615 -14.833c3.82715 0 9.77734 0.750977 11.8545 2.0498zM451.717 348.285
c15.5557 -15.5566 28.2832 -46.2852 28.2822 -68.2852v-304.001c0 -21.999 -18 -39.999 -39.999 -39.999h-368c-22 0 -40 18 -40 39.999v432.001c0 22 18 40 40 40h240c22.001 0 52.7285 -12.7275 68.2852 -28.2842zM429.09 325.657l-71.4316 71.4307
c-1.56543 1.56543 -3.4873 3.125 -5.65723 4.63965v-81.7275h81.7285c-1.51562 2.16992 -3.07422 4.0918 -4.63965 5.65723zM448.001 -24.001v304.001c0 2.41602 -0.305664 5.12598 -0.851562 8h-127.148v127.147c-2.87305 0.546875 -5.58398 0.851562 -8.00098 0.851562
h-240c-4.33496 0 -8 -3.66309 -8 -7.99902v-432.001c0 -4.33594 3.66406 -7.99902 8 -7.99902h368.001c4.33594 0 8 3.66309 8 7.99902z" />
    <glyph glyph-name="uniF10A" unicode="&#xf10a;" 
d="M160.348 -33.4385c-3.17578 -3.17578 -7.14453 -4.7627 -11.5107 -4.7627c-4.36523 0 -8.33496 1.58691 -11.5098 4.7627c-6.35059 6.35059 -6.35059 16.6699 0 23.0195l202.419 202.419l-202.419 202.419c-6.35059 6.34961 -6.35059 16.6689 0 23.0195
s16.6699 6.35059 23.0205 0l213.929 -213.929c6.34961 -6.34961 6.34961 -16.6699 0 -23.0195z" />
    <glyph glyph-name="uniF19F" unicode="&#xf19f;" 
d="M512 206.223l-199.111 -199.111v116.622c-142.222 0 -241.777 -45.5107 -312.889 -145.066c28.4443 142.222 113.777 284.444 312.889 312.889v113.777z" />
    <glyph glyph-name="uniF1A7" unicode="&#xf1a7;" 
d="M505.027 208.834c9.29785 -9.29785 9.29785 -24.3701 0 -33.668l-152.358 -152.363c-4.64941 -4.64453 -10.7422 -6.97266 -16.835 -6.97266s-12.1865 2.32812 -16.834 6.97266c-9.29785 9.29785 -9.29785 24.3711 0 33.6689l111.718 111.722h-406.911
c-13.1465 0 -23.8066 10.6611 -23.8066 23.8066c0 13.1475 10.6602 23.8066 23.8066 23.8066h406.911l-111.722 111.722c-9.29785 9.29785 -9.29785 24.3711 0 33.6689c9.2959 9.2959 24.3721 9.2959 33.6689 0z" />
    <glyph glyph-name="uniF15B" unicode="&#xf15b;" 
d="M104.33 107.657c-41.5879 49.9688 -69.5967 96.7559 -88.1631 147.149c-12.0938 32.5703 -16.7617 59.5176 -14.7461 84.873c1.69727 20.2637 9.86621 37.7695 24.2949 52.1973l39.6787 39.6787c11.3516 10.8213 24.2949 16.4443 37.7686 16.4443
c13.5791 0 26.417 -5.62305 37.3438 -16.3379c7.21484 -6.68359 14.5352 -14.1104 21.5371 -21.3252c3.60742 -3.71289 7.1084 -7.32031 10.8213 -11.0332l31.6152 -31.6152c11.5645 -11.458 17.6113 -24.7197 17.6113 -38.1934s-6.15332 -26.7354 -17.6113 -38.1934
c-3.28906 -3.28809 -6.57715 -6.57715 -9.76074 -9.86621c-9.01758 -9.23047 -18.3535 -18.6719 -28.3262 -27.6904c7.1084 -16.4434 17.293 -32.5693 32.4639 -51.7725c30.0244 -36.8135 61.4277 -65.459 96.0137 -87.4199
c3.50098 -2.22754 7.42676 -4.24316 11.6699 -6.36523c3.39551 -1.69727 7.00195 -3.50098 10.5029 -5.5166l37.9814 37.9805c11.1396 11.1396 24.1885 17.0811 37.7686 17.0811s26.5234 -5.94141 37.3447 -17.1875l63.7607 -63.7607
c22.8096 -22.8096 22.8096 -52.7275 0.212891 -76.2803c-4.88086 -5.09277 -9.97266 -10.0791 -14.959 -14.8525c-7.32129 -7.1084 -14.3232 -13.792 -20.4766 -21.2188c-0.105469 -0.211914 -0.318359 -0.424805 -0.423828 -0.530273
c-17.293 -18.7783 -38.5117 -27.9023 -64.9287 -27.9023c-2.43945 0 -4.77441 0.106445 -7.21387 0.211914c-39.3604 2.54688 -74.6885 17.3994 -101.105 29.918c-69.3848 33.6318 -130.175 81.1602 -180.675 141.527zM27.3066 337.452
c-1.69727 -21.3242 2.44043 -44.7705 13.3682 -73.9463c17.6113 -47.5293 44.2402 -91.876 83.8125 -139.511c48.0596 -57.502 105.986 -102.804 171.976 -134.737c24.2949 -11.5635 56.6523 -25.1436 91.4512 -27.3711
c1.80371 -0.106445 3.71289 -0.212891 5.5166 -0.212891c18.7783 0 33.3125 6.15332 45.5137 19.3096c7.00195 8.38086 14.7461 15.8076 22.1729 23.0215c4.98633 4.77441 9.6543 9.33594 14.1104 14.1104c12.9434 13.4736 13.0488 27.2656 0.318359 39.9971
l-63.9736 63.8672c-4.1377 4.45605 -10.7148 9.44238 -18.7783 9.44238c-6.57812 0 -13.2617 -3.28906 -19.415 -9.44238l-39.6777 -39.6787c-1.80371 -1.80371 -7.32031 -7.21387 -15.8086 -7.21387c-3.39453 0 -6.78906 0.848633 -10.29 2.65234
c-0.424805 0.211914 -0.743164 0.423828 -1.16699 0.635742c-3.50195 2.22852 -7.42676 4.24414 -11.6709 6.36621c-4.56152 2.33398 -9.44141 4.66797 -14.0039 7.63867c-36.9199 23.4463 -70.4453 53.8945 -102.272 93.1484
c-17.7178 22.2793 -29.0693 40.9512 -37.2383 60.5781c-0.106445 0.318359 -0.211914 0.53125 -0.318359 0.849609c-2.12207 6.36523 -3.50098 14.7461 5.30469 23.5518c0.211914 0.212891 0.318359 0.318359 0.530273 0.530273
c10.1846 9.01855 19.415 18.4609 29.2812 28.4336c3.28906 3.28809 6.57812 6.68359 9.86719 9.97168c6.57715 6.57812 9.97266 13.2617 9.97266 19.8398c0 6.57715 -3.39551 13.2617 -9.97266 19.8389l-31.6162 31.6152c-3.71289 3.81934 -7.42578 7.5332 -11.0332 11.2461
c-7.21387 7.32031 -13.8984 14.2168 -21.0059 20.7939c-6.04785 6.15332 -12.625 9.23047 -19.0967 9.23047c-6.57812 0 -13.3682 -3.07715 -19.5215 -9.01855l-39.4658 -39.4658c-10.1846 -10.1846 -15.5957 -21.9609 -16.8691 -36.0713z" />
    <glyph glyph-name="uniF10B" unicode="&#xf10b;" 
d="M30.1641 -33.8359c-6.35059 6.35059 -6.35059 16.6699 0 23.0205l202.815 202.815l-202.815 202.815c-6.35059 6.35059 -6.35059 16.6699 0 23.0205s16.6699 6.35059 23.0205 0l202.815 -202.815l202.815 202.815c6.35059 6.35059 16.6699 6.35059 23.0205 0
s6.35059 -16.6699 0 -23.0205l-202.815 -202.815l202.815 -202.815c6.35059 -6.35059 6.35059 -16.6699 0 -23.0205c-3.17578 -3.1748 -7.54102 -4.7627 -11.5107 -4.7627c-4.36523 0 -8.33496 1.58789 -11.5098 4.7627l-202.815 202.815l-202.815 -202.815
c-3.1748 -3.1748 -7.14453 -4.7627 -11.5098 -4.7627c-4.36621 0 -8.33496 1.58789 -11.5107 4.7627z" />
    <glyph glyph-name="uniF185" unicode="&#xf185;" 
d="M490.899 83.0244c5.51758 -10.9727 1.09473 -24.3574 -9.85449 -29.8848c-3.21484 -1.62695 -6.63672 -2.37891 -9.99414 -2.37891c-7.7832 0 -15.1904 4.18359 -19.2588 11.3291c-28.4785 -73.335 -104.733 -126.088 -194.374 -126.088
c-90.8291 0 -167.981 54.1396 -195.542 129.019l-1.0127 -2.00195c-3.90039 -7.77148 -11.7451 -12.2578 -19.8926 -12.2578c-3.37012 0 -6.78223 0.761719 -9.99414 2.37891c-10.9629 5.51758 -15.3975 18.9004 -9.86816 29.875l35.833 71.2168l71.207 -35.8652
c10.9736 -5.52734 15.3965 -18.9014 9.86719 -29.876s-18.8818 -15.3857 -29.8867 -9.86719l-4.87207 2.44141c18.6826 -51.8662 69.2666 -90.9229 130.991 -98.9033v231.844h-34.0801c-12.29 0 -22.252 9.96387 -22.252 22.252s9.96387 22.2617 22.252 22.2617h34.0801
v23.6904c-35.7812 9.81543 -62.1738 42.5088 -62.1738 81.3564c0 46.5674 37.8682 84.4346 84.4238 84.4346s84.4229 -37.8672 84.4248 -84.4346c0 -38.8477 -26.3926 -71.5508 -62.1738 -81.3564v-23.6904h35.8965c12.29 0 22.252 -9.97168 22.252 -22.2617
s-9.96387 -22.252 -22.252 -22.252h-35.8965v-232.084c63.248 7.51074 115.136 47.6416 133.475 100.906l-8.34473 -4.19434c-10.9648 -5.50879 -24.3574 -1.11719 -29.8867 9.86719c-5.53027 10.9727 -1.10742 24.3467 9.86719 29.876l71.207 35.8652zM216.576 363.565
c0 -22.001 17.9092 -39.9121 39.9219 -39.9121c22.0098 0 39.9209 17.9111 39.9209 39.9121c0 22.0215 -17.8994 39.9219 -39.9209 39.9219c-22.0225 0 -39.9219 -17.9004 -39.9219 -39.9219z" />
    <glyph glyph-name="uniF150" unicode="&#xf150;" 
d="M256 -64c-141.155 0 -256 114.845 -256 256s114.845 256 256 256s256 -114.845 256 -256s-114.845 -256 -256 -256zM256 422.421c-127.061 0 -230.421 -103.36 -230.421 -230.421s103.36 -230.421 230.421 -230.421s230.421 103.36 230.421 230.421
s-103.36 230.421 -230.421 230.421zM144.81 179.158c-7.09961 0 -12.8418 5.6377 -12.8418 12.7373s5.74219 12.8418 12.8418 12.8418h191.582l-50.1143 50.1143c-5.01172 5.01172 -5.01172 13.0508 0 18.0615c5.01172 5.01172 13.0508 5.01172 18.0615 0l71.9355 -71.9346
c5.01074 -5.01074 5.01074 -13.0508 0 -18.0615l-71.9355 -71.9346c-2.50488 -2.50586 -5.74219 -3.75879 -9.08301 -3.75879s-6.57715 1.25293 -9.08301 3.75879c-5.01172 5.01074 -5.01172 13.0498 0 18.0615l50.1143 50.1143h-191.478z" />
    <glyph glyph-name="uniF19E" unicode="&#xf19e;" 
d="M162.909 78.5459l308.363 308.363l40.7275 -40.7275l-349.091 -349.091l-162.909 162.909l40.7275 40.7275z" />
    <glyph glyph-name="uniF101" unicode="&#xf101;" 
d="M0 384h192v-192l-192 -192v384zM320 384h192v-192l-192 -192v384z" />
    <glyph glyph-name="uniF11A" unicode="&#xf11a;" 
d="M467.767 205.27c0 -6.44336 -3.57715 -12.0615 -8.84668 -14.9893v-153.649h27.0928c4.58105 0 8.29395 -3.71387 8.29395 -8.29395v-27.0928h9.39941c4.58008 0 8.29395 -3.71387 8.29395 -8.29395v-35.3867c0 -4.58008 -3.71387 -8.29395 -8.29395 -8.29395h-495.412
c-4.58008 0 -8.29395 3.71387 -8.29395 8.29395v35.3867c0 4.58008 3.71387 8.29395 8.29395 8.29395h9.39941v27.0928c0 4.58008 3.71289 8.29395 8.29395 8.29395h27.0928v153.649c-5.26953 2.92773 -8.84668 8.5459 -8.84668 14.9893v9.40039h-18.2461
c-4.58105 0 -8.29395 3.71289 -8.29395 8.29297v27.0938h-9.39941c-4.58008 0 -8.29395 3.71289 -8.29395 8.29297v26.54c0 2.97754 1.59473 5.72461 4.17871 7.20117l247.706 141.547c2.5498 1.45605 5.67969 1.45605 8.23047 0l247.706 -141.547
c2.58398 -1.47656 4.17871 -4.22559 4.17871 -7.20117v-26.54c0 -4.58008 -3.71387 -8.29297 -8.29395 -8.29297h-9.39941v-27.0938c0 -4.58008 -3.71289 -8.29297 -8.29395 -8.29297h-18.2461v-9.40039zM451.18 205.27v9.40039h-36.4932v-9.40039
c0 -0.304688 0.248047 -0.552734 0.552734 -0.552734h35.3867c0.305664 0 0.553711 0.248047 0.553711 0.552734zM370.453 36.6309h36.4932v153.649c-5.26953 2.92773 -8.84668 8.5459 -8.84668 14.9893v9.40039h-18.7998v-9.40039
c0 -6.44336 -3.57715 -12.0615 -8.84668 -14.9893v-153.649zM335.067 36.6309h18.7988v151.499h-18.7988v-151.499zM281.987 36.6309h36.4922v153.649c-5.26953 2.92773 -8.84668 8.5459 -8.84668 14.9893v9.40039h-18.7988v-9.40039
c0 -6.44336 -3.57812 -12.0615 -8.84668 -14.9893v-153.649zM246.601 36.6309h18.7988v151.499h-18.7988v-151.499zM193.521 36.6309h36.4922v153.649c-5.26855 2.92773 -8.84668 8.5459 -8.84668 14.9893v9.40039h-18.7988v-9.40039
c0 -6.44336 -3.57715 -12.0615 -8.84668 -14.9893v-153.649zM158.134 36.6309h18.7988v151.499h-18.7988v-151.499zM105.054 36.6309h36.4932v153.649c-5.26953 2.92773 -8.84668 8.5459 -8.84668 14.9893v9.40039h-18.7998v-9.40039
c0 -6.44336 -3.57715 -12.0615 -8.84668 -14.9893v-153.649zM185.779 214.67h-36.4922v-9.40039c0 -0.304688 0.248047 -0.552734 0.552734 -0.552734h35.3867c0.305664 0 0.552734 0.248047 0.552734 0.552734v9.40039zM274.246 214.67h-36.4922v-9.40039
c0 -0.304688 0.248047 -0.552734 0.552734 -0.552734h35.3867c0.304688 0 0.552734 0.248047 0.552734 0.552734v9.40039zM362.713 214.67h-36.4922v-9.40039c0 -0.304688 0.24707 -0.552734 0.552734 -0.552734h35.3867c0.304688 0 0.552734 0.248047 0.552734 0.552734
v9.40039zM16.5879 280.077v-13.4336h478.824v13.4336l-239.412 136.807zM34.2812 250.057v-18.7998h443.438v18.7998h-443.438zM97.3135 214.67h-36.4932v-9.40039c0 -0.304688 0.248047 -0.552734 0.553711 -0.552734h35.3867
c0.304688 0 0.552734 0.248047 0.552734 0.552734v9.40039zM69.667 188.13v-151.499h18.7998v151.499h-18.7998zM495.412 -34.1426v18.7988h-478.824v-18.7988h478.824zM477.719 1.24414v18.7988h-443.438v-18.7988h443.438zM423.533 36.6309h18.7998v151.499h-18.7998
v-151.499z" />
    <glyph glyph-name="uniF131" unicode="&#xf131;" 
d="M368.2 303.312c5.92773 6.57617 16.0479 7.06445 22.5918 1.13672c6.55176 -5.92871 7.06445 -16.0479 1.12793 -22.6084l-185.231 -204.76c-3.1123 -3.67188 -7.7041 -5.7998 -12.4404 -5.7998c-0.400391 0 -0.791992 0.223633 -1.2002 0.255859
c-0.591797 -0.0722656 -1.17578 -0.3125 -1.75977 -0.3125c-5.18457 0 -10.0723 2.5127 -13.0156 6.80078l-64.3848 71.1514c-5.93555 6.55176 -5.41602 16.6719 1.12793 22.6006c6.54395 5.91211 16.6729 5.42383 22.5928 -1.13672l55.2793 -61.0957zM255.984 448
c141.176 0 256.016 -114.84 256.016 -256s-114.84 -256 -256.016 -256c-141.152 0 -255.984 114.84 -255.984 256s114.832 256 255.984 256zM255.984 -32c123.52 0 224.016 100.488 224.016 224s-100.496 224 -224.016 224c-123.496 0 -223.984 -100.488 -223.984 -224
s100.488 -224 223.984 -224z" />
    <glyph glyph-name="uniF155" unicode="&#xf155;" 
d="M12.8994 216.331h117.774c7.13184 0 12.9004 -5.76855 12.9004 -12.8994v-240.898c0 -7.13086 -5.76855 -12.8994 -12.9004 -12.8994h-117.774c-7.13086 0 -12.8994 5.76855 -12.8994 12.8994v240.898c0 7.13086 5.76855 12.8994 12.8994 12.8994zM117.774 -24.5674
v215.204h-92.0801v-215.204h92.0801zM184.266 421.467c0 7.13086 5.76758 12.7949 12.7949 12.8994h117.879c7.13184 0 12.9004 -5.76855 12.9004 -12.8994v-458.934c0 -7.13086 -5.76855 -12.8994 -12.9004 -12.8994h-117.774
c-7.13184 0 -12.8994 5.76855 -12.8994 12.8994v458.934zM209.96 408.567v0v-433.239h92.0801v433.239h-92.0801zM499.101 -50.2617v-0.104492h-117.774c-7.13184 0 -12.9004 5.76855 -12.9004 12.8994v309.172c0 7.13184 5.76855 12.8994 12.9004 12.8994h117.774
c7.13086 0 12.8994 -5.76758 12.8994 -12.8994v-309.066c0 -7.13184 -5.76855 -12.9004 -12.8994 -12.9004zM394.226 258.806v-283.478h92.0801v283.478h-92.0801z" />
    <glyph glyph-name="uniF162" unicode="&#xf162;" 
d="M466.451 398.626c6.99316 -8.2207 10.0146 -19.0186 8.29004 -29.623c-9.40039 -57.7979 -45.7734 -108.86 -97.3955 -136.87c-4.71777 -11.3428 -10.0586 -22.0859 -16.0078 -32.0957c-18.7227 -31.5029 -41.9316 -53.4033 -67.4795 -64.2637
c-2.91211 -26.8438 14.8506 -52.3389 41.752 -58.3945c0.0488281 -0.0117188 0.0966797 -0.0273438 0.145508 -0.0400391c5.22461 -1.2334 9.11816 -5.91699 9.11816 -11.5195v-54.3623h21.9873c19.6025 0 35.5498 -15.9473 35.5498 -35.5488v-28.0586
c0 -6.54492 -5.30566 -11.8496 -11.8506 -11.8496h-267.987c-6.54492 0 -11.8496 5.30469 -11.8496 11.8496v28.0586c0 19.6016 15.9463 35.5488 35.5488 35.5488h21.9863v54.3633c0 5.5918 3.87891 10.2676 9.08984 11.5127
c0.0556641 0.0136719 0.0957031 0.0332031 0.152344 0.0458984c26.7002 6.01562 44.4297 31.2568 41.7949 57.9004c-26.0029 10.6875 -49.626 32.7852 -68.6279 64.7598c-5.94824 10.0088 -11.291 20.751 -16.0078 32.0918c-51.625 28.0088 -88 79.0723 -97.4004 136.872
c-1.72461 10.6045 1.29688 21.4033 8.28906 29.624c7.06445 8.30664 17.3682 13.0713 28.2676 13.0713h35.7764v11.1895c0 13.8467 11.2646 25.1123 25.1123 25.1123h242.593c13.8457 0 25.1133 -11.2656 25.1133 -25.1133v-11.1895h35.7725
c10.8994 0 21.2021 -4.76367 28.2676 -13.0713zM60.6523 372.808c6.70215 -41.2109 29.0762 -78.5137 61.5723 -104.193c-8.26953 30.2832 -12.6328 63.3975 -12.6328 97.584v21.8018h-35.7764c-3.9375 0 -7.65918 -1.72168 -10.2139 -4.72656
c-2.51855 -2.96191 -3.56543 -6.67871 -2.94922 -10.4658zM366.861 -12.2441h-220.589c-6.53418 0 -11.8506 -5.31543 -11.8506 -11.8496v-16.208h244.29v16.208c0 6.53418 -5.31641 11.8496 -11.8506 11.8496zM321.174 53.9688h-129.214v-42.5127h129.214v42.5127z
M223.037 77.668v0.000976562h67.1729c-12.5918 13.8398 -20.0791 32.0508 -20.3496 51.2891c-4.57324 -0.677734 -9.19043 -1.03516 -13.8516 -1.03516c-4.28418 0 -8.53223 0.306641 -12.7412 0.879883c-0.186523 -14.3174 -4.33105 -28.335 -12.2285 -40.6748
c-2.39453 -3.74023 -5.07227 -7.23535 -8.00195 -10.46zM378.71 366.197v56.6904c0 0.779297 -0.633789 1.41309 -1.41406 1.41309h-242.592c-0.77832 0 -1.41211 -0.632812 -1.41211 -1.41309v-56.6924c0 -58.3789 13.4062 -113.089 37.748 -154.05
c23.1953 -39.0293 53.3691 -60.5234 84.9668 -60.5234c31.5918 0 61.7637 21.4951 84.9561 60.5254c24.3408 40.96 37.7471 95.6699 37.7471 154.05zM451.349 372.808c0.615234 3.78711 -0.432617 7.50391 -2.95117 10.4648
c-2.55371 3.00391 -6.27539 4.72656 -10.2139 4.72656h-35.7725v-21.8018c0 -34.1855 -4.36328 -67.2979 -12.6318 -97.5811c32.4951 25.6816 54.8672 62.9834 61.5693 104.191zM327.941 326.342c1.39355 -4.29102 0.231445 -9 -3.00098 -12.1484l-25.875 -25.2207
l6.10938 -35.6133c0.762695 -4.44531 -1.06445 -8.9375 -4.71387 -11.5898c-2.06445 -1.5 -4.51074 -2.2627 -6.9668 -2.2627c-1.88477 0 -3.77734 0.449219 -5.51172 1.35938l-31.9814 16.8135l-31.9834 -16.8135c-3.99219 -2.09766 -8.83105 -1.74902 -12.4795 0.902344
c-3.64941 2.65234 -5.47656 7.14453 -4.71387 11.5898l6.10938 35.6133l-25.875 25.2207c-3.23047 3.14941 -4.39258 7.85742 -2.99902 12.1484c1.39355 4.29004 5.10156 7.41699 9.56543 8.06543l35.7588 5.19531l15.9902 32.4023
c1.99609 4.04395 6.11523 6.60449 10.627 6.60449c4.50977 0 8.62891 -2.56055 10.626 -6.60449l15.9902 -32.4023l35.7588 -5.19531c4.46289 -0.650391 8.1709 -3.77637 9.56543 -8.06445zM278.064 301.595l13.1426 12.8096l-18.1621 2.64062
c-3.86035 0.560547 -7.19531 2.98438 -8.92285 6.48145l-8.12109 16.458l-8.12305 -16.458c-1.72656 -3.49707 -5.06348 -5.92188 -8.92285 -6.48145l-18.1621 -2.64062l13.1416 -12.8096c2.79297 -2.72266 4.06836 -6.64551 3.4082 -10.4893l-3.10254 -18.0898
l16.2451 8.54102c1.72656 0.90625 3.62012 1.36035 5.51367 1.36035c1.89453 0 3.78906 -0.452148 5.51465 -1.36035l16.2451 -8.54102l-3.10254 18.0898c-0.660156 3.8457 0.615234 7.76758 3.4082 10.4893z" />
    <glyph glyph-name="uniF171" unicode="&#xf171;" 
d="M375.035 222.876c7.25879 -18.3662 10.9404 -37.7617 10.9404 -57.6533c0 -86.4619 -70.3418 -156.803 -156.803 -156.803c-86.4697 0 -156.815 70.3418 -156.815 156.804s70.3486 156.804 156.816 156.804c19.9668 0 39.4092 -3.70703 57.7832 -11.0195
c6.19824 -2.46582 9.22363 -9.49023 6.75684 -15.6885c-2.4668 -6.19727 -9.49219 -9.22656 -15.6885 -6.75781c-15.5205 6.17578 -31.9561 9.30664 -48.8525 9.30664c-73.1465 0 -132.658 -59.5049 -132.658 -132.646c0 -73.1396 59.5117 -132.645 132.658 -132.645
c73.1426 0 132.646 59.5049 132.646 132.645c0 16.8369 -3.11133 33.2451 -9.25 48.7705c-2.45215 6.2041 0.587891 13.2217 6.79199 15.6748c6.20605 2.4502 13.2227 -0.587891 15.6748 -6.79199zM449.506 228.393c5.85547 -20.4639 8.82422 -41.7168 8.82422 -63.1689
c0 -126.366 -102.8 -229.173 -229.158 -229.173c-126.366 0 -229.172 102.808 -229.172 229.173c0 126.366 102.806 229.173 229.172 229.174c21.502 0 42.7949 -2.98438 63.2842 -8.86816c6.41309 -1.83984 10.1182 -8.53027 8.27734 -14.9434
s-8.53027 -10.1172 -14.9434 -8.27734c-18.3223 5.26172 -37.3721 7.92871 -56.6182 7.92871c-113.045 0 -205.013 -91.9678 -205.013 -205.013s91.9688 -205.014 205.013 -205.014c113.037 0 204.999 91.9697 204.999 205.014c0 19.2021 -2.65527 38.2207 -7.89062 56.5225
c-1.83496 6.41309 1.87598 13.0996 8.29004 14.9355c6.41797 1.83105 13.1006 -1.87598 14.9355 -8.29004zM313.278 172.599c0.217773 -2.42969 0.328125 -4.91309 0.329102 -7.37402c0 -46.5576 -37.877 -84.4336 -84.4346 -84.4336
c-46.5645 0 -84.4492 37.876 -84.4492 84.4336c0 46.5664 37.8848 84.4482 84.4492 84.4482c2.59375 0 5.15918 -0.115234 7.62305 -0.341797c6.64355 -0.614258 11.5322 -6.49512 10.9199 -13.1377c-0.613281 -6.64453 -6.48926 -11.5303 -13.1377 -10.9199
c-1.73145 0.158203 -3.54883 0.239258 -5.40625 0.239258c-33.2441 0 -60.2891 -27.0449 -60.291 -60.29c0 -33.2344 27.0459 -60.2744 60.29 -60.2744c33.2354 0 60.2754 27.0381 60.2754 60.2744c0 1.74902 -0.078125 3.50879 -0.231445 5.22852
c-0.59375 6.64453 4.31348 12.5127 10.958 13.1055c6.64258 0.567383 12.5127 -4.3125 13.1055 -10.958zM510.149 366.736c3.75195 -9.05762 1.69531 -19.3887 -5.24023 -26.3232l-70.377 -70.3789c-6.83984 -6.83984 -15.9395 -10.6084 -25.6182 -10.6084h-68.3555
l-98.1709 -98.1709c-2.35742 -2.35742 -5.44922 -3.53809 -8.54102 -3.53809c-3.09082 0 -6.18262 1.18066 -8.54102 3.53809c-4.7168 4.71777 -4.7168 12.3672 0 17.084l98.1699 98.1699v68.3555c0 9.67871 3.76758 18.7764 10.6094 25.6182l70.376 70.377
c6.93359 6.93359 17.2666 8.99023 26.3252 5.23828c9.06152 -3.75293 14.918 -12.5156 14.918 -22.3252v-42.1182h42.1191c9.80859 0 18.5732 -5.85645 22.3262 -14.918zM347.635 344.865h-0.000976562v-44.1992l73.9111 73.9111v49.1875l-70.376 -70.3652
c-2.27832 -2.27734 -3.5332 -5.30957 -3.53418 -8.53418zM417.45 287.118l70.3701 70.3701l-49.1924 0.00585938l-73.9092 -73.9092h44.1963c3.17871 0 6.29102 1.28906 8.53516 3.5332z" />
    </font>
</defs>
</svg>
